<?xml version="1.0" encoding="UTF-8" ?>
<!DOCTYPE svg PUBLIC "-//W3C//DTD SVG 1.1//EN" "http://www.w3.org/Graphics/SVG/1.1/DTD/svg11.dtd">
<svg width="300pt" height="640pt" viewBox="0 0 300 640" version="1.1" xmlns="http://www.w3.org/2000/svg">
<path fill="#ffffff" d=" M 0.00 0.00 L 300.00 0.00 L 300.00 640.00 L 0.00 640.00 L 0.00 0.00 Z" />
<path fill="#000000" d=" M 148.15 4.74 C 148.57 4.92 149.42 5.29 149.84 5.47 C 150.30 18.62 150.09 31.79 150.64 44.94 C 150.46 61.31 151.29 77.66 151.23 94.03 C 152.77 104.87 154.20 116.07 159.11 126.00 C 166.67 139.50 174.05 153.09 181.71 166.53 C 173.63 162.96 164.73 162.01 156.01 161.30 C 142.58 160.83 128.67 161.40 116.08 166.54 C 123.48 154.02 130.22 141.13 137.42 128.50 C 143.07 119.01 144.50 107.83 146.30 97.13 C 147.27 86.77 146.72 76.35 146.95 65.97 C 147.91 45.57 147.11 25.12 148.15 4.74 Z" />
<path fill="#000000" d=" M 119.07 170.39 C 130.55 166.29 142.94 165.44 155.05 165.94 C 164.01 166.58 173.14 167.75 181.42 171.46 C 183.37 172.41 185.57 173.35 186.58 175.41 C 192.30 185.70 197.98 196.01 203.73 206.28 C 207.47 212.76 210.83 219.47 213.54 226.44 C 198.87 220.30 182.67 219.52 167.00 218.30 C 149.00 217.85 130.93 217.98 113.01 219.82 C 103.29 221.15 93.33 222.40 84.31 226.47 C 88.86 214.61 95.68 203.86 101.70 192.74 C 104.79 187.13 107.96 181.57 111.02 175.95 C 112.56 172.85 116.09 171.65 119.07 170.39 Z" />
<path fill="#000000" d=" M 90.24 229.13 C 109.88 223.12 130.65 223.12 150.99 223.09 C 169.23 222.89 187.72 223.61 205.41 228.42 C 208.84 229.68 213.16 230.39 215.49 233.38 C 222.00 256.66 220.37 282.02 211.69 304.53 C 208.56 292.79 206.05 280.90 203.48 269.02 C 202.96 269.00 201.92 268.97 201.40 268.95 C 199.82 276.61 198.57 284.33 197.04 292.00 C 194.04 305.87 189.88 319.50 184.36 332.58 C 161.00 336.87 136.80 336.80 113.42 332.59 C 106.42 316.03 101.55 298.58 98.64 280.84 C 97.75 276.80 97.43 272.62 96.14 268.68 C 95.71 268.82 94.84 269.11 94.41 269.25 C 91.37 280.89 89.54 292.84 85.93 304.35 C 77.71 281.74 75.80 256.55 82.43 233.30 C 84.26 230.93 87.55 230.21 90.24 229.13 Z" />
<path fill="#000000" d=" M 64.27 378.40 C 77.87 352.51 87.66 324.77 95.24 296.58 C 99.24 314.80 105.14 332.82 114.48 349.04 C 112.90 353.93 112.00 359.06 110.07 363.83 C 85.90 390.18 61.40 416.25 37.13 442.53 C 35.65 434.91 36.14 427.16 36.12 419.46 C 47.45 407.24 56.44 393.05 64.27 378.40 Z" />
<path fill="#000000" d=" M 202.80 296.58 C 211.24 328.85 222.96 360.47 239.80 389.34 C 246.10 400.23 253.73 410.29 261.83 419.87 C 262.01 427.39 262.23 434.96 260.83 442.39 C 243.02 423.54 225.53 404.39 207.81 385.45 C 201.14 378.12 194.18 371.03 187.69 363.56 C 186.14 358.75 184.67 353.87 183.64 348.93 C 192.72 332.62 198.69 314.74 202.80 296.58 Z" />
<path fill="#000000" d=" M 181.72 337.67 C 181.72 337.86 181.72 338.24 181.72 338.44 C 179.81 342.17 177.42 345.67 175.61 349.45 C 177.41 355.21 179.51 360.91 181.59 366.59 C 183.85 369.92 186.89 372.67 189.68 375.57 C 187.92 381.26 186.19 386.95 184.37 392.62 C 183.72 395.02 181.33 396.22 179.23 397.14 C 172.82 399.73 165.87 400.59 159.03 401.21 C 146.81 401.97 134.29 401.76 122.44 398.39 C 119.10 397.26 115.12 396.10 113.38 392.74 C 111.57 387.08 110.02 381.34 108.03 375.73 C 111.06 371.90 115.70 369.09 117.12 364.20 C 118.84 359.21 120.56 354.23 122.34 349.28 C 119.81 345.59 117.82 341.57 115.66 337.66 C 137.45 341.30 159.95 341.50 181.72 337.67 Z" />
<path fill="#000000" d=" M 119.77 404.56 C 129.20 407.50 139.16 408.17 148.99 408.20 C 158.80 408.15 168.73 407.47 178.19 404.66 C 183.29 413.80 188.03 423.17 193.42 432.15 C 188.17 436.20 181.48 437.39 175.14 438.60 C 162.22 440.58 149.07 441.18 136.03 440.12 C 127.37 439.38 118.57 438.48 110.37 435.44 C 108.21 434.70 106.28 433.47 104.50 432.08 C 109.99 423.14 114.69 413.74 119.77 404.56 Z" />
<path fill="#000000" d=" M 13.66 413.00 C 19.01 411.56 24.63 411.60 29.97 413.07 C 30.39 423.08 29.02 433.24 31.26 443.11 C 33.68 457.23 36.15 471.34 38.51 485.46 C 30.24 489.18 20.73 489.04 11.92 487.68 C 9.44 487.39 7.13 486.44 4.96 485.26 C 7.69 470.83 9.96 456.32 12.53 441.86 C 14.59 432.37 13.34 422.62 13.66 413.00 Z" />
<path fill="#000000" d=" M 268.08 413.08 C 273.38 411.49 278.99 411.65 284.33 413.01 C 284.77 422.97 283.33 433.10 285.61 442.91 C 288.04 457.02 290.42 471.14 292.91 485.25 C 287.81 488.27 281.66 488.17 275.94 488.66 C 270.33 488.18 264.43 488.09 259.35 485.38 C 262.24 469.30 264.92 453.18 267.69 437.08 C 268.45 429.11 267.59 421.07 268.08 413.08 Z" />
<path fill="#000000" d=" M 121.89 457.13 C 119.20 452.71 121.02 447.41 123.94 443.63 C 126.95 444.04 129.97 444.44 133.01 444.58 C 130.40 451.57 133.12 458.95 137.17 464.75 C 141.48 475.95 140.42 488.27 140.72 500.04 C 141.27 515.35 140.97 530.68 141.86 545.97 C 141.58 558.34 142.78 570.69 142.27 583.05 C 139.07 548.64 134.63 514.35 130.88 479.99 C 130.19 471.67 126.48 463.97 121.89 457.13 Z" />
<path fill="#000000" d=" M 148.89 445.43 C 157.04 445.15 165.23 444.94 173.31 443.64 C 175.15 446.11 176.61 448.93 176.89 452.05 C 176.64 454.57 175.67 457.00 174.22 459.08 C 170.15 465.05 167.39 471.95 166.50 479.14 C 161.37 524.42 156.20 569.70 151.06 614.98 C 150.43 621.60 149.30 628.19 149.50 634.86 L 148.96 634.80 C 148.80 634.58 148.47 634.15 148.31 633.94 C 149.19 625.99 148.81 617.98 148.89 610.01 C 148.89 555.15 148.90 500.29 148.89 445.43 Z" />
<path fill="#000000" d=" M 7.60 496.93 C 6.86 494.57 8.65 492.60 9.84 490.79 C 11.22 490.99 12.60 491.18 13.98 491.35 C 12.61 494.21 12.98 497.52 14.64 500.18 C 16.60 503.39 17.31 507.15 17.41 510.87 C 17.66 527.60 17.92 544.33 18.63 561.05 C 17.58 556.41 17.40 551.65 16.95 546.94 C 15.78 537.01 14.65 527.08 13.57 517.15 C 12.80 512.74 13.05 508.08 11.25 503.90 C 10.27 501.45 8.63 499.35 7.60 496.93 Z" />
<path fill="#000000" d=" M 32.09 491.12 C 34.10 490.63 34.87 493.07 35.47 494.49 C 36.33 497.00 34.31 499.12 33.24 501.20 C 31.25 504.41 30.51 508.18 30.18 511.89 C 27.52 536.61 24.33 561.29 21.97 586.04 C 21.32 581.70 21.92 577.32 21.87 572.97 C 21.82 545.96 21.88 518.95 21.83 491.94 C 25.28 492.08 28.69 491.65 32.09 491.12 Z" />
<path fill="#000000" d=" M 262.55 497.04 C 261.87 494.66 263.31 492.68 264.69 490.92 C 266.03 491.05 267.37 491.16 268.72 491.26 C 267.85 494.04 267.64 497.18 269.31 499.72 C 273.32 506.08 272.09 513.86 272.46 520.98 C 272.40 534.08 273.31 547.15 273.34 560.25 C 271.12 542.71 269.50 525.06 267.26 507.51 C 266.53 503.68 264.20 500.49 262.55 497.04 Z" />
<path fill="#000000" d=" M 276.64 491.98 C 280.51 492.06 284.34 491.53 288.11 490.74 C 289.57 492.72 291.51 495.34 289.97 497.84 C 287.74 501.63 285.57 505.60 285.26 510.10 C 282.47 535.39 279.40 560.66 276.79 585.97 C 276.23 580.65 276.78 575.31 276.72 569.99 C 276.64 543.98 276.76 517.98 276.64 491.98 Z" />
</svg>
