  0
SECTION
  2
HEADER
  9
$ACADVER
  1
AC1018
  9
$ACADMAINTVER
 70
     0
  9
$DWGCODEPAGE
  3
ANSI_932
  9
$INSBASE
 10
0.0
 20
0.0
 30
0.0
  9
$EXTMIN
 10
1.000000000000000E+20
 20
1.000000000000000E+20
 30
1.000000000000000E+20
  9
$EXTMAX
 10
-1.000000000000000E+20
 20
-1.000000000000000E+20
 30
-1.000000000000000E+20
  9
$LIMMIN
 10
0.0
 20
0.0
  9
$LIMMAX
 10
12.0
 20
9.0
  9
$ORTHOMODE
 70
     0
  9
$REGENMODE
 70
     1
  9
$FILLMODE
 70
     1
  9
$QTEXTMODE
 70
     0
  9
$MIRRTEXT
 70
     1
  9
$LTSCALE
 40
1.0
  9
$ATTMODE
 70
     1
  9
$TEXTSIZE
 40
0.2
  9
$TRACEWID
 40
0.05
  9
$TEXTSTYLE
  7
Standard
  9
$CLAYER
  8
0
  9
$CELTYPE
  6
ByLayer
  9
$CECOLOR
 62
   256
  9
$CELTSCALE
 40
1.0
  9
$DISPSILH
 70
     0
  9
$DIMSCALE
 40
1.0
  9
$DIMASZ
 40
0.18
  9
$DIMEXO
 40
0.0625
  9
$DIMDLI
 40
0.38
  9
$DIMRND
 40
0.0
  9
$DIMDLE
 40
0.0
  9
$DIMEXE
 40
0.18
  9
$DIMTP
 40
0.0
  9
$DIMTM
 40
0.0
  9
$DIMTXT
 40
0.18
  9
$DIMCEN
 40
0.09
  9
$DIMTSZ
 40
0.0
  9
$DIMTOL
 70
     0
  9
$DIMLIM
 70
     0
  9
$DIMTIH
 70
     1
  9
$DIMTOH
 70
     1
  9
$DIMSE1
 70
     0
  9
$DIMSE2
 70
     0
  9
$DIMTAD
 70
     0
  9
$DIMZIN
 70
     0
  9
$DIMBLK
  1

  9
$DIMASO
 70
     1
  9
$DIMSHO
 70
     1
  9
$DIMPOST
  1

  9
$DIMAPOST
  1

  9
$DIMALT
 70
     0
  9
$DIMALTD
 70
     2
  9
$DIMALTF
 40
25.4
  9
$DIMLFAC
 40
1.0
  9
$DIMTOFL
 70
     0
  9
$DIMTVP
 40
0.0
  9
$DIMTIX
 70
     0
  9
$DIMSOXD
 70
     0
  9
$DIMSAH
 70
     0
  9
$DIMBLK1
  1

  9
$DIMBLK2
  1

  9
$DIMSTYLE
  2
Standard
  9
$DIMCLRD
 70
     0
  9
$DIMCLRE
 70
     0
  9
$DIMCLRT
 70
     0
  9
$DIMTFAC
 40
1.0
  9
$DIMGAP
 40
0.09
  9
$DIMJUST
 70
     0
  9
$DIMSD1
 70
     0
  9
$DIMSD2
 70
     0
  9
$DIMTOLJ
 70
     1
  9
$DIMTZIN
 70
     0
  9
$DIMALTZ
 70
     0
  9
$DIMALTTZ
 70
     0
  9
$DIMUPT
 70
     0
  9
$DIMDEC
 70
     4
  9
$DIMTDEC
 70
     4
  9
$DIMALTU
 70
     2
  9
$DIMALTTD
 70
     2
  9
$DIMTXSTY
  7
Standard
  9
$DIMAUNIT
 70
     0
  9
$DIMADEC
 70
     0
  9
$DIMALTRND
 40
0.0
  9
$DIMAZIN
 70
     0
  9
$DIMDSEP
 70
    46
  9
$DIMATFIT
 70
     3
  9
$DIMFRAC
 70
     0
  9
$DIMLDRBLK
  1

  9
$DIMLUNIT
 70
     2
  9
$DIMLWD
 70
    -2
  9
$DIMLWE
 70
    -2
  9
$DIMTMOVE
 70
     0
  9
$LUNITS
 70
     2
  9
$LUPREC
 70
     4
  9
$SKETCHINC
 40
0.1
  9
$FILLETRAD
 40
0.5
  9
$AUNITS
 70
     0
  9
$AUPREC
 70
     0
  9
$MENU
  1
.
  9
$ELEVATION
 40
0.0
  9
$PELEVATION
 40
0.0
  9
$THICKNESS
 40
0.0
  9
$LIMCHECK
 70
     0
  9
$CHAMFERA
 40
0.5
  9
$CHAMFERB
 40
0.5
  9
$CHAMFERC
 40
1.0
  9
$CHAMFERD
 40
0.0
  9
$SKPOLY
 70
     0
  9
$TDCREATE
 40
2456372.615231481
  9
$TDUCREATE
 40
2456372.573564815
  9
$TDUPDATE
 40
2456372.615231493
  9
$TDUUPDATE
 40
2456372.573564827
  9
$TDINDWG
 40
0.0000000116
  9
$TDUSRTIMER
 40
0.0000000116
  9
$USRTIMER
 70
     1
  9
$ANGBASE
 50
0.0
  9
$ANGDIR
 70
     0
  9
$PDMODE
 70
     0
  9
$PDSIZE
 40
0.0
  9
$PLINEWID
 40
0.0
  9
$SPLFRAME
 70
     0
  9
$SPLINETYPE
 70
     6
  9
$SPLINESEGS
 70
     8
  9
$HANDSEED
  5
5B
  9
$SURFTAB1
 70
     6
  9
$SURFTAB2
 70
     6
  9
$SURFTYPE
 70
     6
  9
$SURFU
 70
     6
  9
$SURFV
 70
     6
  9
$UCSBASE
  2

  9
$UCSNAME
  2

  9
$UCSORG
 10
0.0
 20
0.0
 30
0.0
  9
$UCSXDIR
 10
1.0
 20
0.0
 30
0.0
  9
$UCSYDIR
 10
0.0
 20
1.0
 30
0.0
  9
$UCSORTHOREF
  2

  9
$UCSORTHOVIEW
 70
     0
  9
$UCSORGTOP
 10
0.0
 20
0.0
 30
0.0
  9
$UCSORGBOTTOM
 10
0.0
 20
0.0
 30
0.0
  9
$UCSORGLEFT
 10
0.0
 20
0.0
 30
0.0
  9
$UCSORGRIGHT
 10
0.0
 20
0.0
 30
0.0
  9
$UCSORGFRONT
 10
0.0
 20
0.0
 30
0.0
  9
$UCSORGBACK
 10
0.0
 20
0.0
 30
0.0
  9
$PUCSBASE
  2

  9
$PUCSNAME
  2

  9
$PUCSORG
 10
0.0
 20
0.0
 30
0.0
  9
$PUCSXDIR
 10
1.0
 20
0.0
 30
0.0
  9
$PUCSYDIR
 10
0.0
 20
1.0
 30
0.0
  9
$PUCSORTHOREF
  2

  9
$PUCSORTHOVIEW
 70
     0
  9
$PUCSORGTOP
 10
0.0
 20
0.0
 30
0.0
  9
$PUCSORGBOTTOM
 10
0.0
 20
0.0
 30
0.0
  9
$PUCSORGLEFT
 10
0.0
 20
0.0
 30
0.0
  9
$PUCSORGRIGHT
 10
0.0
 20
0.0
 30
0.0
  9
$PUCSORGFRONT
 10
0.0
 20
0.0
 30
0.0
  9
$PUCSORGBACK
 10
0.0
 20
0.0
 30
0.0
  9
$USERI1
 70
     0
  9
$USERI2
 70
     0
  9
$USERI3
 70
     0
  9
$USERI4
 70
     0
  9
$USERI5
 70
     0
  9
$USERR1
 40
0.0
  9
$USERR2
 40
0.0
  9
$USERR3
 40
0.0
  9
$USERR4
 40
0.0
  9
$USERR5
 40
0.0
  9
$WORLDVIEW
 70
     1
  9
$SHADEDGE
 70
     3
  9
$SHADEDIF
 70
    70
  9
$TILEMODE
 70
     1
  9
$MAXACTVP
 70
    64
  9
$PINSBASE
 10
0.0
 20
0.0
 30
0.0
  9
$PLIMCHECK
 70
     0
  9
$PEXTMIN
 10
1.000000000000000E+20
 20
1.000000000000000E+20
 30
1.000000000000000E+20
  9
$PEXTMAX
 10
-1.000000000000000E+20
 20
-1.000000000000000E+20
 30
-1.000000000000000E+20
  9
$PLIMMIN
 10
0.0
 20
0.0
  9
$PLIMMAX
 10
12.0
 20
9.0
  9
$UNITMODE
 70
     0
  9
$VISRETAIN
 70
     1
  9
$PLINEGEN
 70
     0
  9
$PSLTSCALE
 70
     1
  9
$TREEDEPTH
 70
  3020
  9
$CMLSTYLE
  2
Standard
  9
$CMLJUST
 70
     0
  9
$CMLSCALE
 40
1.0
  9
$PROXYGRAPHICS
 70
     1
  9
$MEASUREMENT
 70
     0
  9
$CELWEIGHT
370
    -1
  9
$ENDCAPS
280
     0
  9
$JOINSTYLE
280
     0
  9
$LWDISPLAY
290
     1
  9
$INSUNITS
 70
     1
  9
$HYPERLINKBASE
  1

  9
$STYLESHEET
  1

  9
$XEDIT
290
     1
  9
$CEPSNTYPE
380
     0
  9
$PSTYLEMODE
290
     1
  9
$FINGERPRINTGUID
  2
{7DB1DFDD-7F07-AD99-2433-2B90866B07BE}
  9
$VERSIONGUID
  2
{FAEB1C32-E019-11D5-929B-00C0DF256EC4}
  9
$EXTNAMES
290
     1
  9
$PSVPSCALE
 40
0.0
  9
$OLESTARTUP
290
     0
  9
$SORTENTS
280
   127
  9
$INDEXCTL
280
     0
  9
$HIDETEXT
280
     1
  9
$XCLIPFRAME
290
     0
  9
$HALOGAP
280
     0
  9
$OBSCOLOR
 70
   257
  9
$OBSLTYPE
280
     0
  9
$INTERSECTIONDISPLAY
280
     0
  9
$INTERSECTIONCOLOR
 70
   257
  9
$DIMASSOC
280
     2
  9
$PROJECTNAME
  1

  0
ENDSEC
  0
SECTION
  2
CLASSES
  0
CLASS
  1
ACDBDICTIONARYWDFLT
  2
AcDbDictionaryWithDefault
  3
ObjectDBX Classes
 90
        0
 91
        3
280
     0
281
     0
  0
CLASS
  1
VISUALSTYLE
  2
AcDbVisualStyle
  3
ObjectDBX Classes
 90
     4095
 91
        3
280
     0
281
     0
  0
ENDSEC
  0
SECTION
  2
TABLES
  0
TABLE
  2
VPORT
  5
8
330
0
100
AcDbSymbolTable
 70
     1
  0
VPORT
  5
29
330
8
100
AcDbSymbolTableRecord
100
AcDbViewportTableRecord
  2
*Active
 70
     0
 10
0.0
 20
0.0
 11
1.0
 21
1.0
 12
0.0
 22
0.0
 13
0.0
 23
0.0
 14
0.5
 24
0.5
 15
0.5
 25
0.5
 16
0.0
 26
0.0
 36
1.0
 17
305.5
 27
396.5
 37
0.0
 40
640.0
 41
0.46875
 42
50.0
 43
0.0
 44
0.0
 50
0.0
 51
0.0
 71
     0
 72
   100
 73
     1
 74
     3
 75
     0
 76
     0
 77
     0
 78
     0
281
     0
 65
     1
110
0.0
120
0.0
130
0.0
111
1.0
121
0.0
131
0.0
112
0.0
122
1.0
132
0.0
 79
     0
146
0.0
  0
ENDTAB
  0
TABLE
  2
LTYPE
  5
5
330
0
100
AcDbSymbolTable
 70
     1
  0
LTYPE
  5
14
330
5
100
AcDbSymbolTableRecord
100
AcDbLinetypeTableRecord
  2
ByBlock
 70
     0
  3

 72
    65
 73
     0
 40
0.0
  0
LTYPE
  5
15
330
5
100
AcDbSymbolTableRecord
100
AcDbLinetypeTableRecord
  2
ByLayer
 70
     0
  3

 72
    65
 73
     0
 40
0.0
  0
LTYPE
  5
16
330
5
100
AcDbSymbolTableRecord
100
AcDbLinetypeTableRecord
  2
Continuous
 70
     0
  3
Solid line
 72
    65
 73
     0
 40
0.0
  0
ENDTAB
  0
TABLE
  2
LAYER
  5
2
330
0
100
AcDbSymbolTable
 70
     2
  0
LAYER
  5
10
330
2
100
AcDbSymbolTableRecord
100
AcDbLayerTableRecord
  2
0
 70
     0
 62
     7
  6
Continuous
370
    -3
390
F
  0
LAYER
  5
3B
330
2
100
AcDbSymbolTableRecord
100
AcDbLayerTableRecord
  2
Layer 1
 70
     0
 62
     7
  6
Continuous
370
    -3
390
F
  0
ENDTAB
  0
TABLE
  2
STYLE
  5
3
330
0
100
AcDbSymbolTable
 70
     1
  0
STYLE
  5
11
330
3
100
AcDbSymbolTableRecord
100
AcDbTextStyleTableRecord
  2
Standard
 70
     0
 40
0.0
 41
1.0
 50
0.0
 71
     0
 42
0.2
  3
txt
  4

  0
ENDTAB
  0
TABLE
  2
VIEW
  5
6
330
0
100
AcDbSymbolTable
 70
     0
  0
ENDTAB
  0
TABLE
  2
UCS
  5
7
330
0
100
AcDbSymbolTable
 70
     0
  0
ENDTAB
  0
TABLE
  2
APPID
  5
9
330
0
100
AcDbSymbolTable
 70
     1
  0
APPID
  5
12
330
9
100
AcDbSymbolTableRecord
100
AcDbRegAppTableRecord
  2
ACAD
 70
     0
  0
ENDTAB
  0
TABLE
  2
DIMSTYLE
  5
A
330
0
100
AcDbSymbolTable
 70
     1
100
AcDbDimStyleTable
  0
DIMSTYLE
105
27
330
A
100
AcDbSymbolTableRecord
100
AcDbDimStyleTableRecord
  2
Standard
 70
     0
340
11
  0
ENDTAB
  0
TABLE
  2
BLOCK_RECORD
  5
1
330
0
100
AcDbSymbolTable
 70
     1
  0
BLOCK_RECORD
  5
1F
330
1
100
AcDbSymbolTableRecord
100
AcDbBlockTableRecord
  2
*Model_Space
340
22
  0
BLOCK_RECORD
  5
1B
330
1
100
AcDbSymbolTableRecord
100
AcDbBlockTableRecord
  2
*Paper_Space
340
1E
  0
BLOCK_RECORD
  5
23
330
1
100
AcDbSymbolTableRecord
100
AcDbBlockTableRecord
  2
*Paper_Space0
340
26
  0
ENDTAB
  0
ENDSEC
  0
SECTION
  2
BLOCKS
  0
BLOCK
  5
20
330
1F
100
AcDbEntity
  8
0
100
AcDbBlockBegin
  2
*Model_Space
 70
     0
 71
     0
 10
0.0
 20
0.0
 30
0.0
  3
*Model_Space
  1

  0
ENDBLK
  5
21
330
1F
100
AcDbEntity
  8
0
100
AcDbBlockEnd
  0
BLOCK
  5
1C
330
1B
100
AcDbEntity
 67
     1
  8
0
100
AcDbBlockBegin
  2
*Paper_Space
 70
     0
 71
     0
 10
0.0
 20
0.0
 30
0.0
  3
*Paper_Space
  1

  0
ENDBLK
  5
1D
330
1B
100
AcDbEntity
 67
     1
  8
0
100
AcDbBlockEnd
  0
BLOCK
  5
24
330
23
100
AcDbEntity
  8
0
100
AcDbBlockBegin
  2
*Paper_Space0
 70
     0
 71
     0
 10
0.0
 20
0.0
 30
0.0
  3
*Paper_Space0
  1

  0
ENDBLK
  5
25
330
23
100
AcDbEntity
  8
0
100
AcDbBlockEnd
  0
ENDSEC
  0
SECTION
  2
ENTITIES
  0
SPLINE
  5
3C
330
1F
100
AcDbEntity
  8
Layer 1
370
     0
100
AcDbSpline
210
0.0
220
0.0
230
1.0
 70
    11
 71
     3
 72
    38
 73
    34
 74
     0
 42
0.0000000001
 43
0.0000000001
 40
0.0
 40
0.0
 40
0.0
 40
0.0
 40
1.0
 40
1.0
 40
1.0
 40
2.0
 40
2.0
 40
2.0
 40
3.0
 40
3.0
 40
3.0
 40
4.0
 40
4.0
 40
4.0
 40
5.0
 40
5.0
 40
5.0
 40
6.0
 40
6.0
 40
6.0
 40
7.0
 40
7.0
 40
7.0
 40
8.0
 40
8.0
 40
8.0
 40
9.0
 40
9.0
 40
9.0
 40
10.0
 40
10.0
 40
10.0
 40
11.0
 40
11.0
 40
11.0
 40
11.0
 10
303.64990234375
 20
711.759765625
 30
0.0
 10
304.06982421875
 20
711.580078125
 30
0.0
 10
304.919921875
 20
711.2099609375
 30
0.0
 10
305.33984375
 20
711.0302734375
 30
0.0
 10
305.7998046875
 20
697.8798828125
 30
0.0
 10
305.58984375
 20
684.7099609375
 30
0.0
 10
306.140625
 20
671.56005859375
 30
0.0
 10
305.9599609375
 20
655.18994140625
 30
0.0
 10
306.7900390625
 20
638.83984375
 30
0.0
 10
306.73046875
 20
622.4697265625
 30
0.0
 10
308.26953125
 20
611.6298828125
 30
0.0
 10
309.7001953125
 20
600.43017578125
 30
0.0
 10
314.609375
 20
590.5
 30
0.0
 10
322.169921875
 20
577.0
 30
0.0
 10
329.5498046875
 20
563.41015625
 30
0.0
 10
337.2099609375
 20
549.9697265625
 30
0.0
 10
329.1298828125
 20
553.5400390625
 30
0.0
 10
320.23046875
 20
554.490234375
 30
0.0
 10
311.509765625
 20
555.2001953125
 30
0.0
 10
298.080078125
 20
555.669921875
 30
0.0
 10
284.169921875
 20
555.10009765625
 30
0.0
 10
271.580078125
 20
549.9599609375
 30
0.0
 10
278.97998046875
 20
562.47998046875
 30
0.0
 10
285.72021484375
 20
575.3701171875
 30
0.0
 10
292.919921875
 20
588.0
 30
0.0
 10
298.56982421875
 20
597.490234375
 30
0.0
 10
300.0
 20
608.669921875
 30
0.0
 10
301.7998046875
 20
619.3701171875
 30
0.0
 10
302.77001953125
 20
629.72998046875
 30
0.0
 10
302.22021484375
 20
640.14990234375
 30
0.0
 10
302.4501953125
 20
650.5302734375
 30
0.0
 10
303.41015625
 20
670.93017578125
 30
0.0
 10
302.60986328125
 20
691.3798828125
 30
0.0
 10
303.64990234375
 20
711.759765625
 30
0.0
  0
HATCH
  5
3D
330
1F
100
AcDbEntity
  8
Layer 1
 62
     7
100
AcDbHatch
 10
0.0
 20
0.0
 30
0.0
210
0.0
220
0.0
230
1.0
  2
SOLID
 70
     1
 71
     0
 91
        1
 92
        1
 93
        1
 72
     4
 94
        3
 73
     0
 74
     1
 95
       38
 96
       34
 40
0.0
 40
0.0
 40
0.0
 40
0.0
 40
1.0
 40
1.0
 40
1.0
 40
2.0
 40
2.0
 40
2.0
 40
3.0
 40
3.0
 40
3.0
 40
4.0
 40
4.0
 40
4.0
 40
5.0
 40
5.0
 40
5.0
 40
6.0
 40
6.0
 40
6.0
 40
7.0
 40
7.0
 40
7.0
 40
8.0
 40
8.0
 40
8.0
 40
9.0
 40
9.0
 40
9.0
 40
10.0
 40
10.0
 40
10.0
 40
11.0
 40
11.0
 40
11.0
 40
11.0
 10
303.64990234375
 20
711.759765625
 10
304.06982421875
 20
711.580078125
 10
304.919921875
 20
711.2099609375
 10
305.33984375
 20
711.0302734375
 10
305.7998046875
 20
697.8798828125
 10
305.58984375
 20
684.7099609375
 10
306.140625
 20
671.56005859375
 10
305.9599609375
 20
655.18994140625
 10
306.7900390625
 20
638.83984375
 10
306.73046875
 20
622.4697265625
 10
308.26953125
 20
611.6298828125
 10
309.7001953125
 20
600.43017578125
 10
314.609375
 20
590.5
 10
322.169921875
 20
577.0
 10
329.5498046875
 20
563.41015625
 10
337.2099609375
 20
549.9697265625
 10
329.1298828125
 20
553.5400390625
 10
320.23046875
 20
554.490234375
 10
311.509765625
 20
555.2001953125
 10
298.080078125
 20
555.669921875
 10
284.169921875
 20
555.10009765625
 10
271.580078125
 20
549.9599609375
 10
278.97998046875
 20
562.47998046875
 10
285.72021484375
 20
575.3701171875
 10
292.919921875
 20
588.0
 10
298.56982421875
 20
597.490234375
 10
300.0
 20
608.669921875
 10
301.7998046875
 20
619.3701171875
 10
302.77001953125
 20
629.72998046875
 10
302.22021484375
 20
640.14990234375
 10
302.4501953125
 20
650.5302734375
 10
303.41015625
 20
670.93017578125
 10
302.60986328125
 20
691.3798828125
 10
303.64990234375
 20
711.759765625
 97
        0
 75
     2
 76
     1
 98
        0
  0
SPLINE
  5
3E
330
1F
100
AcDbEntity
  8
Layer 1
370
     0
100
AcDbSpline
210
0.0
220
0.0
230
1.0
 70
    11
 71
     3
 72
    38
 73
    34
 74
     0
 42
0.0000000001
 43
0.0000000001
 40
0.0
 40
0.0
 40
0.0
 40
0.0
 40
1.0
 40
1.0
 40
1.0
 40
2.0
 40
2.0
 40
2.0
 40
3.0
 40
3.0
 40
3.0
 40
4.0
 40
4.0
 40
4.0
 40
5.0
 40
5.0
 40
5.0
 40
6.0
 40
6.0
 40
6.0
 40
7.0
 40
7.0
 40
7.0
 40
8.0
 40
8.0
 40
8.0
 40
9.0
 40
9.0
 40
9.0
 40
10.0
 40
10.0
 40
10.0
 40
11.0
 40
11.0
 40
11.0
 40
11.0
 10
274.56982421875
 20
546.10986328125
 30
0.0
 10
286.0498046875
 20
550.2099609375
 30
0.0
 10
298.43994140625
 20
551.06005859375
 30
0.0
 10
310.5498046875
 20
550.56005859375
 30
0.0
 10
319.509765625
 20
549.919921875
 30
0.0
 10
328.640625
 20
548.75
 30
0.0
 10
336.919921875
 20
545.0400390625
 30
0.0
 10
338.8701171875
 20
544.08984375
 30
0.0
 10
341.0703125
 20
543.14990234375
 30
0.0
 10
342.080078125
 20
541.08984375
 30
0.0
 10
347.7998046875
 20
530.7998046875
 30
0.0
 10
353.48046875
 20
520.490234375
 30
0.0
 10
359.23046875
 20
510.2197265625
 30
0.0
 10
362.970703125
 20
503.740234375
 30
0.0
 10
366.330078125
 20
497.0302734375
 30
0.0
 10
369.0400390625
 20
490.06005859375
 30
0.0
 10
354.3701171875
 20
496.2001953125
 30
0.0
 10
338.169921875
 20
496.97998046875
 30
0.0
 10
322.5
 20
498.2001953125
 30
0.0
 10
304.5
 20
498.64990234375
 30
0.0
 10
286.43017578125
 20
498.52001953125
 30
0.0
 10
268.509765625
 20
496.68017578125
 30
0.0
 10
258.7900390625
 20
495.35009765625
 30
0.0
 10
248.830078125
 20
494.10009765625
 30
0.0
 10
239.81005859375
 20
490.0302734375
 30
0.0
 10
244.35986328125
 20
501.89013671875
 30
0.0
 10
251.18017578125
 20
512.64013671875
 30
0.0
 10
257.2001953125
 20
523.759765625
 30
0.0
 10
260.2900390625
 20
529.3701171875
 30
0.0
 10
263.4599609375
 20
534.93017578125
 30
0.0
 10
266.52001953125
 20
540.5498046875
 30
0.0
 10
268.06005859375
 20
543.64990234375
 30
0.0
 10
271.58984375
 20
544.85009765625
 30
0.0
 10
274.56982421875
 20
546.10986328125
 30
0.0
  0
HATCH
  5
3F
330
1F
100
AcDbEntity
  8
Layer 1
 62
     7
100
AcDbHatch
 10
0.0
 20
0.0
 30
0.0
210
0.0
220
0.0
230
1.0
  2
SOLID
 70
     1
 71
     0
 91
        1
 92
        1
 93
        1
 72
     4
 94
        3
 73
     0
 74
     1
 95
       38
 96
       34
 40
0.0
 40
0.0
 40
0.0
 40
0.0
 40
1.0
 40
1.0
 40
1.0
 40
2.0
 40
2.0
 40
2.0
 40
3.0
 40
3.0
 40
3.0
 40
4.0
 40
4.0
 40
4.0
 40
5.0
 40
5.0
 40
5.0
 40
6.0
 40
6.0
 40
6.0
 40
7.0
 40
7.0
 40
7.0
 40
8.0
 40
8.0
 40
8.0
 40
9.0
 40
9.0
 40
9.0
 40
10.0
 40
10.0
 40
10.0
 40
11.0
 40
11.0
 40
11.0
 40
11.0
 10
274.56982421875
 20
546.10986328125
 10
286.0498046875
 20
550.2099609375
 10
298.43994140625
 20
551.06005859375
 10
310.5498046875
 20
550.56005859375
 10
319.509765625
 20
549.919921875
 10
328.640625
 20
548.75
 10
336.919921875
 20
545.0400390625
 10
338.8701171875
 20
544.08984375
 10
341.0703125
 20
543.14990234375
 10
342.080078125
 20
541.08984375
 10
347.7998046875
 20
530.7998046875
 10
353.48046875
 20
520.490234375
 10
359.23046875
 20
510.2197265625
 10
362.970703125
 20
503.740234375
 10
366.330078125
 20
497.0302734375
 10
369.0400390625
 20
490.06005859375
 10
354.3701171875
 20
496.2001953125
 10
338.169921875
 20
496.97998046875
 10
322.5
 20
498.2001953125
 10
304.5
 20
498.64990234375
 10
286.43017578125
 20
498.52001953125
 10
268.509765625
 20
496.68017578125
 10
258.7900390625
 20
495.35009765625
 10
248.830078125
 20
494.10009765625
 10
239.81005859375
 20
490.0302734375
 10
244.35986328125
 20
501.89013671875
 10
251.18017578125
 20
512.64013671875
 10
257.2001953125
 20
523.759765625
 10
260.2900390625
 20
529.3701171875
 10
263.4599609375
 20
534.93017578125
 10
266.52001953125
 20
540.5498046875
 10
268.06005859375
 20
543.64990234375
 10
271.58984375
 20
544.85009765625
 10
274.56982421875
 20
546.10986328125
 97
        0
 75
     2
 76
     1
 98
        0
  0
SPLINE
  5
40
330
1F
100
AcDbEntity
  8
Layer 1
370
     0
100
AcDbSpline
210
0.0
220
0.0
230
1.0
 70
    11
 71
     3
 72
    50
 73
    46
 74
     0
 42
0.0000000001
 43
0.0000000001
 40
0.0
 40
0.0
 40
0.0
 40
0.0
 40
1.0
 40
1.0
 40
1.0
 40
2.0
 40
2.0
 40
2.0
 40
3.0
 40
3.0
 40
3.0
 40
4.0
 40
4.0
 40
4.0
 40
5.0
 40
5.0
 40
5.0
 40
6.0
 40
6.0
 40
6.0
 40
7.0
 40
7.0
 40
7.0
 40
8.0
 40
8.0
 40
8.0
 40
9.0
 40
9.0
 40
9.0
 40
10.0
 40
10.0
 40
10.0
 40
11.0
 40
11.0
 40
11.0
 40
12.0
 40
12.0
 40
12.0
 40
13.0
 40
13.0
 40
13.0
 40
14.0
 40
14.0
 40
14.0
 40
15.0
 40
15.0
 40
15.0
 40
15.0
 10
245.740234375
 20
487.3701171875
 30
0.0
 10
265.3798828125
 20
493.3798828125
 30
0.0
 10
286.14990234375
 20
493.3798828125
 30
0.0
 10
306.490234375
 20
493.41015625
 30
0.0
 10
324.73046875
 20
493.60986328125
 30
0.0
 10
343.220703125
 20
492.89013671875
 30
0.0
 10
360.91015625
 20
488.080078125
 30
0.0
 10
364.33984375
 20
486.81982421875
 30
0.0
 10
368.66015625
 20
486.10986328125
 30
0.0
 10
370.990234375
 20
483.1201171875
 30
0.0
 10
377.5
 20
459.83984375
 30
0.0
 10
375.8701171875
 20
434.47998046875
 30
0.0
 10
367.189453125
 20
411.9697265625
 30
0.0
 10
364.060546875
 20
423.7099609375
 30
0.0
 10
361.5498046875
 20
435.60009765625
 30
0.0
 10
358.98046875
 20
447.47998046875
 30
0.0
 10
358.4599609375
 20
447.5
 30
0.0
 10
357.419921875
 20
447.5302734375
 30
0.0
 10
356.900390625
 20
447.5498046875
 30
0.0
 10
355.3203125
 20
439.89013671875
 30
0.0
 10
354.0703125
 20
432.169921875
 30
0.0
 10
352.5400390625
 20
424.5
 30
0.0
 10
349.5400390625
 20
410.6298828125
 30
0.0
 10
345.3798828125
 20
397.0
 30
0.0
 10
339.859375
 20
383.919921875
 30
0.0
 10
316.5
 20
379.6298828125
 30
0.0
 10
292.2998046875
 20
379.7001953125
 30
0.0
 10
268.919921875
 20
383.91015625
 30
0.0
 10
261.919921875
 20
400.47021484375
 30
0.0
 10
257.0498046875
 20
417.919921875
 30
0.0
 10
254.14013671875
 20
435.66015625
 30
0.0
 10
253.25
 20
439.7001953125
 30
0.0
 10
252.93017578125
 20
443.8798828125
 30
0.0
 10
251.64013671875
 20
447.81982421875
 30
0.0
 10
251.2099609375
 20
447.68017578125
 30
0.0
 10
250.33984375
 20
447.39013671875
 30
0.0
 10
249.91015625
 20
447.25
 30
0.0
 10
246.8701171875
 20
435.60986328125
 30
0.0
 10
245.0400390625
 20
423.66015625
 30
0.0
 10
241.43017578125
 20
412.14990234375
 30
0.0
 10
233.2099609375
 20
434.759765625
 30
0.0
 10
231.2998046875
 20
459.9501953125
 30
0.0
 10
237.93017578125
 20
483.2001953125
 30
0.0
 10
239.759765625
 20
485.56982421875
 30
0.0
 10
243.0498046875
 20
486.2900390625
 30
0.0
 10
245.740234375
 20
487.3701171875
 30
0.0
  0
HATCH
  5
41
330
1F
100
AcDbEntity
  8
Layer 1
 62
     7
100
AcDbHatch
 10
0.0
 20
0.0
 30
0.0
210
0.0
220
0.0
230
1.0
  2
SOLID
 70
     1
 71
     0
 91
        1
 92
        1
 93
        1
 72
     4
 94
        3
 73
     0
 74
     1
 95
       50
 96
       46
 40
0.0
 40
0.0
 40
0.0
 40
0.0
 40
1.0
 40
1.0
 40
1.0
 40
2.0
 40
2.0
 40
2.0
 40
3.0
 40
3.0
 40
3.0
 40
4.0
 40
4.0
 40
4.0
 40
5.0
 40
5.0
 40
5.0
 40
6.0
 40
6.0
 40
6.0
 40
7.0
 40
7.0
 40
7.0
 40
8.0
 40
8.0
 40
8.0
 40
9.0
 40
9.0
 40
9.0
 40
10.0
 40
10.0
 40
10.0
 40
11.0
 40
11.0
 40
11.0
 40
12.0
 40
12.0
 40
12.0
 40
13.0
 40
13.0
 40
13.0
 40
14.0
 40
14.0
 40
14.0
 40
15.0
 40
15.0
 40
15.0
 40
15.0
 10
245.740234375
 20
487.3701171875
 10
265.3798828125
 20
493.3798828125
 10
286.14990234375
 20
493.3798828125
 10
306.490234375
 20
493.41015625
 10
324.73046875
 20
493.60986328125
 10
343.220703125
 20
492.89013671875
 10
360.91015625
 20
488.080078125
 10
364.33984375
 20
486.81982421875
 10
368.66015625
 20
486.10986328125
 10
370.990234375
 20
483.1201171875
 10
377.5
 20
459.83984375
 10
375.8701171875
 20
434.47998046875
 10
367.189453125
 20
411.9697265625
 10
364.060546875
 20
423.7099609375
 10
361.5498046875
 20
435.60009765625
 10
358.98046875
 20
447.47998046875
 10
358.4599609375
 20
447.5
 10
357.419921875
 20
447.5302734375
 10
356.900390625
 20
447.5498046875
 10
355.3203125
 20
439.89013671875
 10
354.0703125
 20
432.169921875
 10
352.5400390625
 20
424.5
 10
349.5400390625
 20
410.6298828125
 10
345.3798828125
 20
397.0
 10
339.859375
 20
383.919921875
 10
316.5
 20
379.6298828125
 10
292.2998046875
 20
379.7001953125
 10
268.919921875
 20
383.91015625
 10
261.919921875
 20
400.47021484375
 10
257.0498046875
 20
417.919921875
 10
254.14013671875
 20
435.66015625
 10
253.25
 20
439.7001953125
 10
252.93017578125
 20
443.8798828125
 10
251.64013671875
 20
447.81982421875
 10
251.2099609375
 20
447.68017578125
 10
250.33984375
 20
447.39013671875
 10
249.91015625
 20
447.25
 10
246.8701171875
 20
435.60986328125
 10
245.0400390625
 20
423.66015625
 10
241.43017578125
 20
412.14990234375
 10
233.2099609375
 20
434.759765625
 10
231.2998046875
 20
459.9501953125
 10
237.93017578125
 20
483.2001953125
 10
239.759765625
 20
485.56982421875
 10
243.0498046875
 20
486.2900390625
 10
245.740234375
 20
487.3701171875
 97
        0
 75
     2
 76
     1
 98
        0
  0
SPLINE
  5
42
330
1F
100
AcDbEntity
  8
Layer 1
370
     0
100
AcDbSpline
210
0.0
220
0.0
230
1.0
 70
    11
 71
     3
 72
    23
 73
    19
 74
     0
 42
0.0000000001
 43
0.0000000001
 40
0.0
 40
0.0
 40
0.0
 40
0.0
 40
1.0
 40
1.0
 40
1.0
 40
2.0
 40
2.0
 40
2.0
 40
3.0
 40
3.0
 40
3.0
 40
4.0
 40
4.0
 40
4.0
 40
5.0
 40
5.0
 40
5.0
 40
6.0
 40
6.0
 40
6.0
 40
6.0
 10
219.77001953125
 20
338.099609375
 30
0.0
 10
233.3701171875
 20
363.990234375
 30
0.0
 10
243.16015625
 20
391.73046875
 30
0.0
 10
250.740234375
 20
419.919921875
 30
0.0
 10
254.740234375
 20
401.7001953125
 30
0.0
 10
260.64013671875
 20
383.6796875
 30
0.0
 10
269.97998046875
 20
367.4599609375
 30
0.0
 10
268.39990234375
 20
362.5703125
 30
0.0
 10
267.5
 20
357.439453125
 30
0.0
 10
265.56982421875
 20
352.669921875
 30
0.0
 10
241.39990234375
 20
326.3203125
 30
0.0
 10
216.89990234375
 20
300.25
 30
0.0
 10
192.6298828125
 20
273.9697265625
 30
0.0
 10
191.14990234375
 20
281.58984375
 30
0.0
 10
191.64013671875
 20
289.33984375
 30
0.0
 10
191.6201171875
 20
297.0400390625
 30
0.0
 10
202.9501953125
 20
309.259765625
 30
0.0
 10
211.93994140625
 20
323.4501953125
 30
0.0
 10
219.77001953125
 20
338.099609375
 30
0.0
  0
HATCH
  5
43
330
1F
100
AcDbEntity
  8
Layer 1
 62
     7
100
AcDbHatch
 10
0.0
 20
0.0
 30
0.0
210
0.0
220
0.0
230
1.0
  2
SOLID
 70
     1
 71
     0
 91
        1
 92
        1
 93
        1
 72
     4
 94
        3
 73
     0
 74
     1
 95
       23
 96
       19
 40
0.0
 40
0.0
 40
0.0
 40
0.0
 40
1.0
 40
1.0
 40
1.0
 40
2.0
 40
2.0
 40
2.0
 40
3.0
 40
3.0
 40
3.0
 40
4.0
 40
4.0
 40
4.0
 40
5.0
 40
5.0
 40
5.0
 40
6.0
 40
6.0
 40
6.0
 40
6.0
 10
219.77001953125
 20
338.099609375
 10
233.3701171875
 20
363.990234375
 10
243.16015625
 20
391.73046875
 10
250.740234375
 20
419.919921875
 10
254.740234375
 20
401.7001953125
 10
260.64013671875
 20
383.6796875
 10
269.97998046875
 20
367.4599609375
 10
268.39990234375
 20
362.5703125
 10
267.5
 20
357.439453125
 10
265.56982421875
 20
352.669921875
 10
241.39990234375
 20
326.3203125
 10
216.89990234375
 20
300.25
 10
192.6298828125
 20
273.9697265625
 10
191.14990234375
 20
281.58984375
 10
191.64013671875
 20
289.33984375
 10
191.6201171875
 20
297.0400390625
 10
202.9501953125
 20
309.259765625
 10
211.93994140625
 20
323.4501953125
 10
219.77001953125
 20
338.099609375
 97
        0
 75
     2
 76
     1
 98
        0
  0
SPLINE
  5
44
330
1F
100
AcDbEntity
  8
Layer 1
370
     0
100
AcDbSpline
210
0.0
220
0.0
230
1.0
 70
    11
 71
     3
 72
    26
 73
    22
 74
     0
 42
0.0000000001
 43
0.0000000001
 40
0.0
 40
0.0
 40
0.0
 40
0.0
 40
1.0
 40
1.0
 40
1.0
 40
2.0
 40
2.0
 40
2.0
 40
3.0
 40
3.0
 40
3.0
 40
4.0
 40
4.0
 40
4.0
 40
5.0
 40
5.0
 40
5.0
 40
6.0
 40
6.0
 40
6.0
 40
7.0
 40
7.0
 40
7.0
 40
7.0
 10
358.2998046875
 20
419.919921875
 30
0.0
 10
366.740234375
 20
387.650390625
 30
0.0
 10
378.4599609375
 20
356.029296875
 30
0.0
 10
395.2998046875
 20
327.16015625
 30
0.0
 10
401.599609375
 20
316.26953125
 30
0.0
 10
409.23046875
 20
306.2099609375
 30
0.0
 10
417.330078125
 20
296.6298828125
 30
0.0
 10
417.509765625
 20
289.1103515625
 30
0.0
 10
417.73046875
 20
281.5400390625
 30
0.0
 10
416.330078125
 20
274.1103515625
 30
0.0
 10
398.51953125
 20
292.9599609375
 30
0.0
 10
381.029296875
 20
312.109375
 30
0.0
 10
363.310546875
 20
331.0498046875
 30
0.0
 10
356.640625
 20
338.3798828125
 30
0.0
 10
349.6796875
 20
345.470703125
 30
0.0
 10
343.189453125
 20
352.939453125
 30
0.0
 10
341.640625
 20
357.75
 30
0.0
 10
340.169921875
 20
362.6298828125
 30
0.0
 10
339.140625
 20
367.5703125
 30
0.0
 10
348.220703125
 20
383.8798828125
 30
0.0
 10
354.189453125
 20
401.759765625
 30
0.0
 10
358.2998046875
 20
419.919921875
 30
0.0
  0
HATCH
  5
45
330
1F
100
AcDbEntity
  8
Layer 1
 62
     7
100
AcDbHatch
 10
0.0
 20
0.0
 30
0.0
210
0.0
220
0.0
230
1.0
  2
SOLID
 70
     1
 71
     0
 91
        1
 92
        1
 93
        1
 72
     4
 94
        3
 73
     0
 74
     1
 95
       26
 96
       22
 40
0.0
 40
0.0
 40
0.0
 40
0.0
 40
1.0
 40
1.0
 40
1.0
 40
2.0
 40
2.0
 40
2.0
 40
3.0
 40
3.0
 40
3.0
 40
4.0
 40
4.0
 40
4.0
 40
5.0
 40
5.0
 40
5.0
 40
6.0
 40
6.0
 40
6.0
 40
7.0
 40
7.0
 40
7.0
 40
7.0
 10
358.2998046875
 20
419.919921875
 10
366.740234375
 20
387.650390625
 10
378.4599609375
 20
356.029296875
 10
395.2998046875
 20
327.16015625
 10
401.599609375
 20
316.26953125
 10
409.23046875
 20
306.2099609375
 10
417.330078125
 20
296.6298828125
 10
417.509765625
 20
289.1103515625
 10
417.73046875
 20
281.5400390625
 10
416.330078125
 20
274.1103515625
 10
398.51953125
 20
292.9599609375
 10
381.029296875
 20
312.109375
 10
363.310546875
 20
331.0498046875
 10
356.640625
 20
338.3798828125
 10
349.6796875
 20
345.470703125
 10
343.189453125
 20
352.939453125
 10
341.640625
 20
357.75
 10
340.169921875
 20
362.6298828125
 10
339.140625
 20
367.5703125
 10
348.220703125
 20
383.8798828125
 10
354.189453125
 20
401.759765625
 10
358.2998046875
 20
419.919921875
 97
        0
 75
     2
 76
     1
 98
        0
  0
SPLINE
  5
46
330
1F
100
AcDbEntity
  8
Layer 1
370
     0
100
AcDbSpline
210
0.0
220
0.0
230
1.0
 70
    11
 71
     3
 72
    47
 73
    43
 74
     0
 42
0.0000000001
 43
0.0000000001
 40
0.0
 40
0.0
 40
0.0
 40
0.0
 40
1.0
 40
1.0
 40
1.0
 40
2.0
 40
2.0
 40
2.0
 40
3.0
 40
3.0
 40
3.0
 40
4.0
 40
4.0
 40
4.0
 40
5.0
 40
5.0
 40
5.0
 40
6.0
 40
6.0
 40
6.0
 40
7.0
 40
7.0
 40
7.0
 40
8.0
 40
8.0
 40
8.0
 40
9.0
 40
9.0
 40
9.0
 40
10.0
 40
10.0
 40
10.0
 40
11.0
 40
11.0
 40
11.0
 40
12.0
 40
12.0
 40
12.0
 40
13.0
 40
13.0
 40
13.0
 40
14.0
 40
14.0
 40
14.0
 40
14.0
 10
337.220703125
 20
378.830078125
 30
0.0
 10
337.220703125
 20
378.640625
 30
0.0
 10
337.220703125
 20
378.259765625
 30
0.0
 10
337.220703125
 20
378.060546875
 30
0.0
 10
335.310546875
 20
374.330078125
 30
0.0
 10
332.919921875
 20
370.830078125
 30
0.0
 10
331.109375
 20
367.0498046875
 30
0.0
 10
332.91015625
 20
361.2900390625
 30
0.0
 10
335.009765625
 20
355.58984375
 30
0.0
 10
337.08984375
 20
349.91015625
 30
0.0
 10
339.349609375
 20
346.580078125
 30
0.0
 10
342.390625
 20
343.830078125
 30
0.0
 10
345.1796875
 20
340.9296875
 30
0.0
 10
343.419921875
 20
335.240234375
 30
0.0
 10
341.689453125
 20
329.5498046875
 30
0.0
 10
339.8701171875
 20
323.8798828125
 30
0.0
 10
339.220703125
 20
321.48046875
 30
0.0
 10
336.830078125
 20
320.279296875
 30
0.0
 10
334.73046875
 20
319.359375
 30
0.0
 10
328.3203125
 20
316.76953125
 30
0.0
 10
321.3701171875
 20
315.91015625
 30
0.0
 10
314.529296875
 20
315.2900390625
 30
0.0
 10
302.31005859375
 20
314.529296875
 30
0.0
 10
289.7900390625
 20
314.740234375
 30
0.0
 10
277.93994140625
 20
318.109375
 30
0.0
 10
274.60009765625
 20
319.240234375
 30
0.0
 10
270.6201171875
 20
320.400390625
 30
0.0
 10
268.8798828125
 20
323.759765625
 30
0.0
 10
267.06982421875
 20
329.419921875
 30
0.0
 10
265.52001953125
 20
335.16015625
 30
0.0
 10
263.52978515625
 20
340.76953125
 30
0.0
 10
266.56005859375
 20
344.599609375
 30
0.0
 10
271.2001953125
 20
347.41015625
 30
0.0
 10
272.6201171875
 20
352.2998046875
 30
0.0
 10
274.33984375
 20
357.2900390625
 30
0.0
 10
276.06005859375
 20
362.26953125
 30
0.0
 10
277.83984375
 20
367.220703125
 30
0.0
 10
275.31005859375
 20
370.91015625
 30
0.0
 10
273.31982421875
 20
374.9296875
 30
0.0
 10
271.16015625
 20
378.83984375
 30
0.0
 10
292.9501953125
 20
375.2001953125
 30
0.0
 10
315.4501953125
 20
375.0
 30
0.0
 10
337.220703125
 20
378.830078125
 30
0.0
  0
HATCH
  5
47
330
1F
100
AcDbEntity
  8
Layer 1
 62
     7
100
AcDbHatch
 10
0.0
 20
0.0
 30
0.0
210
0.0
220
0.0
230
1.0
  2
SOLID
 70
     1
 71
     0
 91
        1
 92
        1
 93
        1
 72
     4
 94
        3
 73
     0
 74
     1
 95
       47
 96
       43
 40
0.0
 40
0.0
 40
0.0
 40
0.0
 40
1.0
 40
1.0
 40
1.0
 40
2.0
 40
2.0
 40
2.0
 40
3.0
 40
3.0
 40
3.0
 40
4.0
 40
4.0
 40
4.0
 40
5.0
 40
5.0
 40
5.0
 40
6.0
 40
6.0
 40
6.0
 40
7.0
 40
7.0
 40
7.0
 40
8.0
 40
8.0
 40
8.0
 40
9.0
 40
9.0
 40
9.0
 40
10.0
 40
10.0
 40
10.0
 40
11.0
 40
11.0
 40
11.0
 40
12.0
 40
12.0
 40
12.0
 40
13.0
 40
13.0
 40
13.0
 40
14.0
 40
14.0
 40
14.0
 40
14.0
 10
337.220703125
 20
378.830078125
 10
337.220703125
 20
378.640625
 10
337.220703125
 20
378.259765625
 10
337.220703125
 20
378.060546875
 10
335.310546875
 20
374.330078125
 10
332.919921875
 20
370.830078125
 10
331.109375
 20
367.0498046875
 10
332.91015625
 20
361.2900390625
 10
335.009765625
 20
355.58984375
 10
337.08984375
 20
349.91015625
 10
339.349609375
 20
346.580078125
 10
342.390625
 20
343.830078125
 10
345.1796875
 20
340.9296875
 10
343.419921875
 20
335.240234375
 10
341.689453125
 20
329.5498046875
 10
339.8701171875
 20
323.8798828125
 10
339.220703125
 20
321.48046875
 10
336.830078125
 20
320.279296875
 10
334.73046875
 20
319.359375
 10
328.3203125
 20
316.76953125
 10
321.3701171875
 20
315.91015625
 10
314.529296875
 20
315.2900390625
 10
302.31005859375
 20
314.529296875
 10
289.7900390625
 20
314.740234375
 10
277.93994140625
 20
318.109375
 10
274.60009765625
 20
319.240234375
 10
270.6201171875
 20
320.400390625
 10
268.8798828125
 20
323.759765625
 10
267.06982421875
 20
329.419921875
 10
265.52001953125
 20
335.16015625
 10
263.52978515625
 20
340.76953125
 10
266.56005859375
 20
344.599609375
 10
271.2001953125
 20
347.41015625
 10
272.6201171875
 20
352.2998046875
 10
274.33984375
 20
357.2900390625
 10
276.06005859375
 20
362.26953125
 10
277.83984375
 20
367.220703125
 10
275.31005859375
 20
370.91015625
 10
273.31982421875
 20
374.9296875
 10
271.16015625
 20
378.83984375
 10
292.9501953125
 20
375.2001953125
 10
315.4501953125
 20
375.0
 10
337.220703125
 20
378.830078125
 97
        0
 75
     2
 76
     1
 98
        0
  0
SPLINE
  5
48
330
1F
100
AcDbEntity
  8
Layer 1
370
     0
100
AcDbSpline
210
0.0
220
0.0
230
1.0
 70
    11
 71
     3
 72
    29
 73
    25
 74
     0
 42
0.0000000001
 43
0.0000000001
 40
0.0
 40
0.0
 40
0.0
 40
0.0
 40
1.0
 40
1.0
 40
1.0
 40
2.0
 40
2.0
 40
2.0
 40
3.0
 40
3.0
 40
3.0
 40
4.0
 40
4.0
 40
4.0
 40
5.0
 40
5.0
 40
5.0
 40
6.0
 40
6.0
 40
6.0
 40
7.0
 40
7.0
 40
7.0
 40
8.0
 40
8.0
 40
8.0
 40
8.0
 10
275.27001953125
 20
311.939453125
 30
0.0
 10
284.7001953125
 20
309.0
 30
0.0
 10
294.66015625
 20
308.330078125
 30
0.0
 10
304.490234375
 20
308.2998046875
 30
0.0
 10
314.2998046875
 20
308.349609375
 30
0.0
 10
324.23046875
 20
309.029296875
 30
0.0
 10
333.689453125
 20
311.83984375
 30
0.0
 10
338.7900390625
 20
302.7001953125
 30
0.0
 10
343.529296875
 20
293.330078125
 30
0.0
 10
348.919921875
 20
284.349609375
 30
0.0
 10
343.669921875
 20
280.2998046875
 30
0.0
 10
336.98046875
 20
279.1103515625
 30
0.0
 10
330.640625
 20
277.900390625
 30
0.0
 10
317.720703125
 20
275.919921875
 30
0.0
 10
304.56982421875
 20
275.3203125
 30
0.0
 10
291.52978515625
 20
276.3798828125
 30
0.0
 10
282.8701171875
 20
277.1201171875
 30
0.0
 10
274.06982421875
 20
278.01953125
 30
0.0
 10
265.8701171875
 20
281.0595703125
 30
0.0
 10
263.7099609375
 20
281.7998046875
 30
0.0
 10
261.77978515625
 20
283.0302734375
 30
0.0
 10
260.0
 20
284.419921875
 30
0.0
 10
265.490234375
 20
293.3603515625
 30
0.0
 10
270.18994140625
 20
302.759765625
 30
0.0
 10
275.27001953125
 20
311.939453125
 30
0.0
  0
HATCH
  5
49
330
1F
100
AcDbEntity
  8
Layer 1
 62
     7
100
AcDbHatch
 10
0.0
 20
0.0
 30
0.0
210
0.0
220
0.0
230
1.0
  2
SOLID
 70
     1
 71
     0
 91
        1
 92
        1
 93
        1
 72
     4
 94
        3
 73
     0
 74
     1
 95
       29
 96
       25
 40
0.0
 40
0.0
 40
0.0
 40
0.0
 40
1.0
 40
1.0
 40
1.0
 40
2.0
 40
2.0
 40
2.0
 40
3.0
 40
3.0
 40
3.0
 40
4.0
 40
4.0
 40
4.0
 40
5.0
 40
5.0
 40
5.0
 40
6.0
 40
6.0
 40
6.0
 40
7.0
 40
7.0
 40
7.0
 40
8.0
 40
8.0
 40
8.0
 40
8.0
 10
275.27001953125
 20
311.939453125
 10
284.7001953125
 20
309.0
 10
294.66015625
 20
308.330078125
 10
304.490234375
 20
308.2998046875
 10
314.2998046875
 20
308.349609375
 10
324.23046875
 20
309.029296875
 10
333.689453125
 20
311.83984375
 10
338.7900390625
 20
302.7001953125
 10
343.529296875
 20
293.330078125
 10
348.919921875
 20
284.349609375
 10
343.669921875
 20
280.2998046875
 10
336.98046875
 20
279.1103515625
 10
330.640625
 20
277.900390625
 10
317.720703125
 20
275.919921875
 10
304.56982421875
 20
275.3203125
 10
291.52978515625
 20
276.3798828125
 10
282.8701171875
 20
277.1201171875
 10
274.06982421875
 20
278.01953125
 10
265.8701171875
 20
281.0595703125
 10
263.7099609375
 20
281.7998046875
 10
261.77978515625
 20
283.0302734375
 10
260.0
 20
284.419921875
 10
265.490234375
 20
293.3603515625
 10
270.18994140625
 20
302.759765625
 10
275.27001953125
 20
311.939453125
 97
        0
 75
     2
 76
     1
 98
        0
  0
SPLINE
  5
4A
330
1F
100
AcDbEntity
  8
Layer 1
370
     0
100
AcDbSpline
210
0.0
220
0.0
230
1.0
 70
    11
 71
     3
 72
    26
 73
    22
 74
     0
 42
0.0000000001
 43
0.0000000001
 40
0.0
 40
0.0
 40
0.0
 40
0.0
 40
1.0
 40
1.0
 40
1.0
 40
2.0
 40
2.0
 40
2.0
 40
3.0
 40
3.0
 40
3.0
 40
4.0
 40
4.0
 40
4.0
 40
5.0
 40
5.0
 40
5.0
 40
6.0
 40
6.0
 40
6.0
 40
7.0
 40
7.0
 40
7.0
 40
7.0
 10
169.16015625
 20
303.5
 30
0.0
 10
174.509765625
 20
304.939453125
 30
0.0
 10
180.1298828125
 20
304.900390625
 30
0.0
 10
185.47021484375
 20
303.4296875
 30
0.0
 10
185.89013671875
 20
293.419921875
 30
0.0
 10
184.52001953125
 20
283.259765625
 30
0.0
 10
186.759765625
 20
273.3896484375
 30
0.0
 10
189.18017578125
 20
259.26953125
 30
0.0
 10
191.64990234375
 20
245.16015625
 30
0.0
 10
194.009765625
 20
231.0400390625
 30
0.0
 10
185.740234375
 20
227.3203125
 30
0.0
 10
176.22998046875
 20
227.4599609375
 30
0.0
 10
167.419921875
 20
228.8203125
 30
0.0
 10
164.93994140625
 20
229.1103515625
 30
0.0
 10
162.6298828125
 20
230.0595703125
 30
0.0
 10
160.4599609375
 20
231.240234375
 30
0.0
 10
163.18994140625
 20
245.669921875
 30
0.0
 10
165.4599609375
 20
260.1796875
 30
0.0
 10
168.02978515625
 20
274.6396484375
 30
0.0
 10
170.08984375
 20
284.1298828125
 30
0.0
 10
168.83984375
 20
293.8798828125
 30
0.0
 10
169.16015625
 20
303.5
 30
0.0
  0
HATCH
  5
4B
330
1F
100
AcDbEntity
  8
Layer 1
 62
     7
100
AcDbHatch
 10
0.0
 20
0.0
 30
0.0
210
0.0
220
0.0
230
1.0
  2
SOLID
 70
     1
 71
     0
 91
        1
 92
        1
 93
        1
 72
     4
 94
        3
 73
     0
 74
     1
 95
       26
 96
       22
 40
0.0
 40
0.0
 40
0.0
 40
0.0
 40
1.0
 40
1.0
 40
1.0
 40
2.0
 40
2.0
 40
2.0
 40
3.0
 40
3.0
 40
3.0
 40
4.0
 40
4.0
 40
4.0
 40
5.0
 40
5.0
 40
5.0
 40
6.0
 40
6.0
 40
6.0
 40
7.0
 40
7.0
 40
7.0
 40
7.0
 10
169.16015625
 20
303.5
 10
174.509765625
 20
304.939453125
 10
180.1298828125
 20
304.900390625
 10
185.47021484375
 20
303.4296875
 10
185.89013671875
 20
293.419921875
 10
184.52001953125
 20
283.259765625
 10
186.759765625
 20
273.3896484375
 10
189.18017578125
 20
259.26953125
 10
191.64990234375
 20
245.16015625
 10
194.009765625
 20
231.0400390625
 10
185.740234375
 20
227.3203125
 10
176.22998046875
 20
227.4599609375
 10
167.419921875
 20
228.8203125
 10
164.93994140625
 20
229.1103515625
 10
162.6298828125
 20
230.0595703125
 10
160.4599609375
 20
231.240234375
 10
163.18994140625
 20
245.669921875
 10
165.4599609375
 20
260.1796875
 10
168.02978515625
 20
274.6396484375
 10
170.08984375
 20
284.1298828125
 10
168.83984375
 20
293.8798828125
 10
169.16015625
 20
303.5
 97
        0
 75
     2
 76
     1
 98
        0
  0
SPLINE
  5
4C
330
1F
100
AcDbEntity
  8
Layer 1
370
     0
100
AcDbSpline
210
0.0
220
0.0
230
1.0
 70
    11
 71
     3
 72
    26
 73
    22
 74
     0
 42
0.0000000001
 43
0.0000000001
 40
0.0
 40
0.0
 40
0.0
 40
0.0
 40
1.0
 40
1.0
 40
1.0
 40
2.0
 40
2.0
 40
2.0
 40
3.0
 40
3.0
 40
3.0
 40
4.0
 40
4.0
 40
4.0
 40
5.0
 40
5.0
 40
5.0
 40
6.0
 40
6.0
 40
6.0
 40
7.0
 40
7.0
 40
7.0
 40
7.0
 10
423.580078125
 20
303.419921875
 30
0.0
 10
428.8798828125
 20
305.009765625
 30
0.0
 10
434.490234375
 20
304.849609375
 30
0.0
 10
439.830078125
 20
303.490234375
 30
0.0
 10
440.26953125
 20
293.5302734375
 30
0.0
 10
438.830078125
 20
283.400390625
 30
0.0
 10
441.109375
 20
273.58984375
 30
0.0
 10
443.5400390625
 20
259.48046875
 30
0.0
 10
445.919921875
 20
245.3603515625
 30
0.0
 10
448.41015625
 20
231.25
 30
0.0
 10
443.310546875
 20
228.23046875
 30
0.0
 10
437.16015625
 20
228.330078125
 30
0.0
 10
431.439453125
 20
227.83984375
 30
0.0
 10
425.830078125
 20
228.3203125
 30
0.0
 10
419.9296875
 20
228.41015625
 30
0.0
 10
414.849609375
 20
231.1201171875
 30
0.0
 10
417.740234375
 20
247.2001953125
 30
0.0
 10
420.419921875
 20
263.3203125
 30
0.0
 10
423.189453125
 20
279.419921875
 30
0.0
 10
423.9501953125
 20
287.3896484375
 30
0.0
 10
423.08984375
 20
295.4296875
 30
0.0
 10
423.580078125
 20
303.419921875
 30
0.0
  0
HATCH
  5
4D
330
1F
100
AcDbEntity
  8
Layer 1
 62
     7
100
AcDbHatch
 10
0.0
 20
0.0
 30
0.0
210
0.0
220
0.0
230
1.0
  2
SOLID
 70
     1
 71
     0
 91
        1
 92
        1
 93
        1
 72
     4
 94
        3
 73
     0
 74
     1
 95
       26
 96
       22
 40
0.0
 40
0.0
 40
0.0
 40
0.0
 40
1.0
 40
1.0
 40
1.0
 40
2.0
 40
2.0
 40
2.0
 40
3.0
 40
3.0
 40
3.0
 40
4.0
 40
4.0
 40
4.0
 40
5.0
 40
5.0
 40
5.0
 40
6.0
 40
6.0
 40
6.0
 40
7.0
 40
7.0
 40
7.0
 40
7.0
 10
423.580078125
 20
303.419921875
 10
428.8798828125
 20
305.009765625
 10
434.490234375
 20
304.849609375
 10
439.830078125
 20
303.490234375
 10
440.26953125
 20
293.5302734375
 10
438.830078125
 20
283.400390625
 10
441.109375
 20
273.58984375
 10
443.5400390625
 20
259.48046875
 10
445.919921875
 20
245.3603515625
 10
448.41015625
 20
231.25
 10
443.310546875
 20
228.23046875
 10
437.16015625
 20
228.330078125
 10
431.439453125
 20
227.83984375
 10
425.830078125
 20
228.3203125
 10
419.9296875
 20
228.41015625
 10
414.849609375
 20
231.1201171875
 10
417.740234375
 20
247.2001953125
 10
420.419921875
 20
263.3203125
 10
423.189453125
 20
279.419921875
 10
423.9501953125
 20
287.3896484375
 10
423.08984375
 20
295.4296875
 10
423.580078125
 20
303.419921875
 97
        0
 75
     2
 76
     1
 98
        0
  0
SPLINE
  5
4E
330
1F
100
AcDbEntity
  8
Layer 1
370
     0
100
AcDbSpline
210
0.0
220
0.0
230
1.0
 70
    11
 71
     3
 72
    29
 73
    25
 74
     0
 42
0.0000000001
 43
0.0000000001
 40
0.0
 40
0.0
 40
0.0
 40
0.0
 40
1.0
 40
1.0
 40
1.0
 40
2.0
 40
2.0
 40
2.0
 40
3.0
 40
3.0
 40
3.0
 40
4.0
 40
4.0
 40
4.0
 40
5.0
 40
5.0
 40
5.0
 40
6.0
 40
6.0
 40
6.0
 40
7.0
 40
7.0
 40
7.0
 40
8.0
 40
8.0
 40
8.0
 40
8.0
 10
277.39013671875
 20
259.3701171875
 30
0.0
 10
274.7001953125
 20
263.7900390625
 30
0.0
 10
276.52001953125
 20
269.08984375
 30
0.0
 10
279.43994140625
 20
272.8701171875
 30
0.0
 10
282.4501953125
 20
272.4599609375
 30
0.0
 10
285.47021484375
 20
272.0595703125
 30
0.0
 10
288.509765625
 20
271.919921875
 30
0.0
 10
285.89990234375
 20
264.9296875
 30
0.0
 10
288.6201171875
 20
257.5498046875
 30
0.0
 10
292.669921875
 20
251.75
 30
0.0
 10
296.97998046875
 20
240.5498046875
 30
0.0
 10
295.919921875
 20
228.23046875
 30
0.0
 10
296.22021484375
 20
216.4599609375
 30
0.0
 10
296.77001953125
 20
201.150390625
 30
0.0
 10
296.47021484375
 20
185.8203125
 30
0.0
 10
297.35986328125
 20
170.5302734375
 30
0.0
 10
297.080078125
 20
158.16015625
 30
0.0
 10
298.27978515625
 20
145.8095703125
 30
0.0
 10
297.77001953125
 20
133.4501953125
 30
0.0
 10
294.56982421875
 20
167.8603515625
 30
0.0
 10
290.1298828125
 20
202.150390625
 30
0.0
 10
286.3798828125
 20
236.509765625
 30
0.0
 10
285.68994140625
 20
244.830078125
 30
0.0
 10
281.97998046875
 20
252.5302734375
 30
0.0
 10
277.39013671875
 20
259.3701171875
 30
0.0
  0
HATCH
  5
4F
330
1F
100
AcDbEntity
  8
Layer 1
 62
     7
100
AcDbHatch
 10
0.0
 20
0.0
 30
0.0
210
0.0
220
0.0
230
1.0
  2
SOLID
 70
     1
 71
     0
 91
        1
 92
        1
 93
        1
 72
     4
 94
        3
 73
     0
 74
     1
 95
       29
 96
       25
 40
0.0
 40
0.0
 40
0.0
 40
0.0
 40
1.0
 40
1.0
 40
1.0
 40
2.0
 40
2.0
 40
2.0
 40
3.0
 40
3.0
 40
3.0
 40
4.0
 40
4.0
 40
4.0
 40
5.0
 40
5.0
 40
5.0
 40
6.0
 40
6.0
 40
6.0
 40
7.0
 40
7.0
 40
7.0
 40
8.0
 40
8.0
 40
8.0
 40
8.0
 10
277.39013671875
 20
259.3701171875
 10
274.7001953125
 20
263.7900390625
 10
276.52001953125
 20
269.08984375
 10
279.43994140625
 20
272.8701171875
 10
282.4501953125
 20
272.4599609375
 10
285.47021484375
 20
272.0595703125
 10
288.509765625
 20
271.919921875
 10
285.89990234375
 20
264.9296875
 10
288.6201171875
 20
257.5498046875
 10
292.669921875
 20
251.75
 10
296.97998046875
 20
240.5498046875
 10
295.919921875
 20
228.23046875
 10
296.22021484375
 20
216.4599609375
 10
296.77001953125
 20
201.150390625
 10
296.47021484375
 20
185.8203125
 10
297.35986328125
 20
170.5302734375
 10
297.080078125
 20
158.16015625
 10
298.27978515625
 20
145.8095703125
 10
297.77001953125
 20
133.4501953125
 10
294.56982421875
 20
167.8603515625
 10
290.1298828125
 20
202.150390625
 10
286.3798828125
 20
236.509765625
 10
285.68994140625
 20
244.830078125
 10
281.97998046875
 20
252.5302734375
 10
277.39013671875
 20
259.3701171875
 97
        0
 75
     2
 76
     1
 98
        0
  0
SPLINE
  5
50
330
1F
100
AcDbEntity
  8
Layer 1
370
     0
100
AcDbSpline
210
0.0
220
0.0
230
1.0
 70
    11
 71
     3
 72
    35
 73
    31
 74
     0
 42
0.0000000001
 43
0.0000000001
 40
0.0
 40
0.0
 40
0.0
 40
0.0
 40
1.0
 40
1.0
 40
1.0
 40
2.0
 40
2.0
 40
2.0
 40
3.0
 40
3.0
 40
3.0
 40
4.0
 40
4.0
 40
4.0
 40
5.0
 40
5.0
 40
5.0
 40
6.0
 40
6.0
 40
6.0
 40
7.0
 40
7.0
 40
7.0
 40
8.0
 40
8.0
 40
8.0
 40
9.0
 40
9.0
 40
9.0
 40
10.0
 40
10.0
 40
10.0
 40
10.0
 10
304.39013671875
 20
271.0703125
 30
0.0
 10
312.5400390625
 20
271.349609375
 30
0.0
 10
320.73046875
 20
271.5595703125
 30
0.0
 10
328.810546875
 20
272.8603515625
 30
0.0
 10
330.650390625
 20
270.3896484375
 30
0.0
 10
332.109375
 20
267.5703125
 30
0.0
 10
332.390625
 20
264.4501953125
 30
0.0
 10
332.140625
 20
261.9296875
 30
0.0
 10
331.169921875
 20
259.5
 30
0.0
 10
329.720703125
 20
257.419921875
 30
0.0
 10
325.650390625
 20
251.4501953125
 30
0.0
 10
322.890625
 20
244.5498046875
 30
0.0
 10
322.0
 20
237.3603515625
 30
0.0
 10
316.8701171875
 20
192.080078125
 30
0.0
 10
311.7001953125
 20
146.7998046875
 30
0.0
 10
306.560546875
 20
101.51953125
 30
0.0
 10
305.93017578125
 20
94.900390625
 30
0.0
 10
304.7998046875
 20
88.3095703125
 30
0.0
 10
305.0
 20
81.6396484375
 30
0.0
 10
305.0
 20
81.6396484375
 30
0.0
 10
304.4599609375
 20
81.7001953125
 30
0.0
 10
304.4599609375
 20
81.7001953125
 30
0.0
 10
304.2998046875
 20
81.919921875
 30
0.0
 10
303.97021484375
 20
82.349609375
 30
0.0
 10
303.81005859375
 20
82.5595703125
 30
0.0
 10
304.68994140625
 20
90.509765625
 30
0.0
 10
304.31005859375
 20
98.51953125
 30
0.0
 10
304.39013671875
 20
106.490234375
 30
0.0
 10
304.39013671875
 20
161.349609375
 30
0.0
 10
304.39990234375
 20
216.2099609375
 30
0.0
 10
304.39013671875
 20
271.0703125
 30
0.0
  0
HATCH
  5
51
330
1F
100
AcDbEntity
  8
Layer 1
 62
     7
100
AcDbHatch
 10
0.0
 20
0.0
 30
0.0
210
0.0
220
0.0
230
1.0
  2
SOLID
 70
     1
 71
     0
 91
        1
 92
        1
 93
        1
 72
     4
 94
        3
 73
     0
 74
     1
 95
       35
 96
       31
 40
0.0
 40
0.0
 40
0.0
 40
0.0
 40
1.0
 40
1.0
 40
1.0
 40
2.0
 40
2.0
 40
2.0
 40
3.0
 40
3.0
 40
3.0
 40
4.0
 40
4.0
 40
4.0
 40
5.0
 40
5.0
 40
5.0
 40
6.0
 40
6.0
 40
6.0
 40
7.0
 40
7.0
 40
7.0
 40
8.0
 40
8.0
 40
8.0
 40
9.0
 40
9.0
 40
9.0
 40
10.0
 40
10.0
 40
10.0
 40
10.0
 10
304.39013671875
 20
271.0703125
 10
312.5400390625
 20
271.349609375
 10
320.73046875
 20
271.5595703125
 10
328.810546875
 20
272.8603515625
 10
330.650390625
 20
270.3896484375
 10
332.109375
 20
267.5703125
 10
332.390625
 20
264.4501953125
 10
332.140625
 20
261.9296875
 10
331.169921875
 20
259.5
 10
329.720703125
 20
257.419921875
 10
325.650390625
 20
251.4501953125
 10
322.890625
 20
244.5498046875
 10
322.0
 20
237.3603515625
 10
316.8701171875
 20
192.080078125
 10
311.7001953125
 20
146.7998046875
 10
306.560546875
 20
101.51953125
 10
305.93017578125
 20
94.900390625
 10
304.7998046875
 20
88.3095703125
 10
305.0
 20
81.6396484375
 10
305.0
 20
81.6396484375
 10
304.4599609375
 20
81.7001953125
 10
304.4599609375
 20
81.7001953125
 10
304.2998046875
 20
81.919921875
 10
303.97021484375
 20
82.349609375
 10
303.81005859375
 20
82.5595703125
 10
304.68994140625
 20
90.509765625
 10
304.31005859375
 20
98.51953125
 10
304.39013671875
 20
106.490234375
 10
304.39013671875
 20
161.349609375
 10
304.39990234375
 20
216.2099609375
 10
304.39013671875
 20
271.0703125
 97
        0
 75
     2
 76
     1
 98
        0
  0
SPLINE
  5
52
330
1F
100
AcDbEntity
  8
Layer 1
370
     0
100
AcDbSpline
210
0.0
220
0.0
230
1.0
 70
    11
 71
     3
 72
    32
 73
    28
 74
     0
 42
0.0000000001
 43
0.0000000001
 40
0.0
 40
0.0
 40
0.0
 40
0.0
 40
1.0
 40
1.0
 40
1.0
 40
2.0
 40
2.0
 40
2.0
 40
3.0
 40
3.0
 40
3.0
 40
4.0
 40
4.0
 40
4.0
 40
5.0
 40
5.0
 40
5.0
 40
6.0
 40
6.0
 40
6.0
 40
7.0
 40
7.0
 40
7.0
 40
8.0
 40
8.0
 40
8.0
 40
9.0
 40
9.0
 40
9.0
 40
9.0
 10
163.10009765625
 20
219.5703125
 30
0.0
 10
162.35986328125
 20
221.9296875
 30
0.0
 10
164.14990234375
 20
223.900390625
 30
0.0
 10
165.33984375
 20
225.7099609375
 30
0.0
 10
166.72021484375
 20
225.509765625
 30
0.0
 10
168.10009765625
 20
225.3203125
 30
0.0
 10
169.47998046875
 20
225.150390625
 30
0.0
 10
168.10986328125
 20
222.2900390625
 30
0.0
 10
168.47998046875
 20
218.98046875
 30
0.0
 10
170.14013671875
 20
216.3203125
 30
0.0
 10
172.10009765625
 20
213.1103515625
 30
0.0
 10
172.81005859375
 20
209.349609375
 30
0.0
 10
172.91015625
 20
205.6298828125
 30
0.0
 10
173.16015625
 20
188.900390625
 30
0.0
 10
173.419921875
 20
172.169921875
 30
0.0
 10
174.1298828125
 20
155.4501953125
 30
0.0
 10
173.080078125
 20
160.08984375
 30
0.0
 10
172.89990234375
 20
164.849609375
 30
0.0
 10
172.4501953125
 20
169.5595703125
 30
0.0
 10
171.27978515625
 20
179.490234375
 30
0.0
 10
170.14990234375
 20
189.419921875
 30
0.0
 10
169.06982421875
 20
199.349609375
 30
0.0
 10
168.2998046875
 20
203.759765625
 30
0.0
 10
168.5498046875
 20
208.419921875
 30
0.0
 10
166.75
 20
212.599609375
 30
0.0
 10
165.77001953125
 20
215.0498046875
 30
0.0
 10
164.1298828125
 20
217.150390625
 30
0.0
 10
163.10009765625
 20
219.5703125
 30
0.0
  0
HATCH
  5
53
330
1F
100
AcDbEntity
  8
Layer 1
 62
     7
100
AcDbHatch
 10
0.0
 20
0.0
 30
0.0
210
0.0
220
0.0
230
1.0
  2
SOLID
 70
     1
 71
     0
 91
        1
 92
        1
 93
        1
 72
     4
 94
        3
 73
     0
 74
     1
 95
       32
 96
       28
 40
0.0
 40
0.0
 40
0.0
 40
0.0
 40
1.0
 40
1.0
 40
1.0
 40
2.0
 40
2.0
 40
2.0
 40
3.0
 40
3.0
 40
3.0
 40
4.0
 40
4.0
 40
4.0
 40
5.0
 40
5.0
 40
5.0
 40
6.0
 40
6.0
 40
6.0
 40
7.0
 40
7.0
 40
7.0
 40
8.0
 40
8.0
 40
8.0
 40
9.0
 40
9.0
 40
9.0
 40
9.0
 10
163.10009765625
 20
219.5703125
 10
162.35986328125
 20
221.9296875
 10
164.14990234375
 20
223.900390625
 10
165.33984375
 20
225.7099609375
 10
166.72021484375
 20
225.509765625
 10
168.10009765625
 20
225.3203125
 10
169.47998046875
 20
225.150390625
 10
168.10986328125
 20
222.2900390625
 10
168.47998046875
 20
218.98046875
 10
170.14013671875
 20
216.3203125
 10
172.10009765625
 20
213.1103515625
 10
172.81005859375
 20
209.349609375
 10
172.91015625
 20
205.6298828125
 10
173.16015625
 20
188.900390625
 10
173.419921875
 20
172.169921875
 10
174.1298828125
 20
155.4501953125
 10
173.080078125
 20
160.08984375
 10
172.89990234375
 20
164.849609375
 10
172.4501953125
 20
169.5595703125
 10
171.27978515625
 20
179.490234375
 10
170.14990234375
 20
189.419921875
 10
169.06982421875
 20
199.349609375
 10
168.2998046875
 20
203.759765625
 10
168.5498046875
 20
208.419921875
 10
166.75
 20
212.599609375
 10
165.77001953125
 20
215.0498046875
 10
164.1298828125
 20
217.150390625
 10
163.10009765625
 20
219.5703125
 97
        0
 75
     2
 76
     1
 98
        0
  0
SPLINE
  5
54
330
1F
100
AcDbEntity
  8
Layer 1
370
     0
100
AcDbSpline
210
0.0
220
0.0
230
1.0
 70
    11
 71
     3
 72
    26
 73
    22
 74
     0
 42
0.0000000001
 43
0.0000000001
 40
0.0
 40
0.0
 40
0.0
 40
0.0
 40
1.0
 40
1.0
 40
1.0
 40
2.0
 40
2.0
 40
2.0
 40
3.0
 40
3.0
 40
3.0
 40
4.0
 40
4.0
 40
4.0
 40
5.0
 40
5.0
 40
5.0
 40
6.0
 40
6.0
 40
6.0
 40
7.0
 40
7.0
 40
7.0
 40
7.0
 10
187.58984375
 20
225.3798828125
 30
0.0
 10
189.60009765625
 20
225.8701171875
 30
0.0
 10
190.3701171875
 20
223.4296875
 30
0.0
 10
190.97021484375
 20
222.009765625
 30
0.0
 10
191.830078125
 20
219.5
 30
0.0
 10
189.81005859375
 20
217.3798828125
 30
0.0
 10
188.740234375
 20
215.2998046875
 30
0.0
 10
186.75
 20
212.08984375
 30
0.0
 10
186.009765625
 20
208.3203125
 30
0.0
 10
185.68017578125
 20
204.6103515625
 30
0.0
 10
183.02001953125
 20
179.8896484375
 30
0.0
 10
179.830078125
 20
155.2099609375
 30
0.0
 10
177.47021484375
 20
130.4599609375
 30
0.0
 10
176.81982421875
 20
134.7998046875
 30
0.0
 10
177.419921875
 20
139.1796875
 30
0.0
 10
177.3701171875
 20
143.5302734375
 30
0.0
 10
177.31982421875
 20
170.5400390625
 30
0.0
 10
177.3798828125
 20
197.5498046875
 30
0.0
 10
177.330078125
 20
224.5595703125
 30
0.0
 10
180.77978515625
 20
224.419921875
 30
0.0
 10
184.18994140625
 20
224.849609375
 30
0.0
 10
187.58984375
 20
225.3798828125
 30
0.0
  0
HATCH
  5
55
330
1F
100
AcDbEntity
  8
Layer 1
 62
     7
100
AcDbHatch
 10
0.0
 20
0.0
 30
0.0
210
0.0
220
0.0
230
1.0
  2
SOLID
 70
     1
 71
     0
 91
        1
 92
        1
 93
        1
 72
     4
 94
        3
 73
     0
 74
     1
 95
       26
 96
       22
 40
0.0
 40
0.0
 40
0.0
 40
0.0
 40
1.0
 40
1.0
 40
1.0
 40
2.0
 40
2.0
 40
2.0
 40
3.0
 40
3.0
 40
3.0
 40
4.0
 40
4.0
 40
4.0
 40
5.0
 40
5.0
 40
5.0
 40
6.0
 40
6.0
 40
6.0
 40
7.0
 40
7.0
 40
7.0
 40
7.0
 10
187.58984375
 20
225.3798828125
 10
189.60009765625
 20
225.8701171875
 10
190.3701171875
 20
223.4296875
 10
190.97021484375
 20
222.009765625
 10
191.830078125
 20
219.5
 10
189.81005859375
 20
217.3798828125
 10
188.740234375
 20
215.2998046875
 10
186.75
 20
212.08984375
 10
186.009765625
 20
208.3203125
 10
185.68017578125
 20
204.6103515625
 10
183.02001953125
 20
179.8896484375
 10
179.830078125
 20
155.2099609375
 10
177.47021484375
 20
130.4599609375
 10
176.81982421875
 20
134.7998046875
 10
177.419921875
 20
139.1796875
 10
177.3701171875
 20
143.5302734375
 10
177.31982421875
 20
170.5400390625
 10
177.3798828125
 20
197.5498046875
 10
177.330078125
 20
224.5595703125
 10
180.77978515625
 20
224.419921875
 10
184.18994140625
 20
224.849609375
 10
187.58984375
 20
225.3798828125
 97
        0
 75
     2
 76
     1
 98
        0
  0
SPLINE
  5
56
330
1F
100
AcDbEntity
  8
Layer 1
370
     0
100
AcDbSpline
210
0.0
220
0.0
230
1.0
 70
    11
 71
     3
 72
    26
 73
    22
 74
     0
 42
0.0000000001
 43
0.0000000001
 40
0.0
 40
0.0
 40
0.0
 40
0.0
 40
1.0
 40
1.0
 40
1.0
 40
2.0
 40
2.0
 40
2.0
 40
3.0
 40
3.0
 40
3.0
 40
4.0
 40
4.0
 40
4.0
 40
5.0
 40
5.0
 40
5.0
 40
6.0
 40
6.0
 40
6.0
 40
7.0
 40
7.0
 40
7.0
 40
7.0
 10
418.0498046875
 20
219.4599609375
 30
0.0
 10
417.3701171875
 20
221.83984375
 30
0.0
 10
418.810546875
 20
223.8203125
 30
0.0
 10
420.189453125
 20
225.580078125
 30
0.0
 10
421.529296875
 20
225.4501953125
 30
0.0
 10
422.8701171875
 20
225.33984375
 30
0.0
 10
424.220703125
 20
225.240234375
 30
0.0
 10
423.349609375
 20
222.4599609375
 30
0.0
 10
423.140625
 20
219.3203125
 30
0.0
 10
424.810546875
 20
216.7802734375
 30
0.0
 10
428.8203125
 20
210.419921875
 30
0.0
 10
427.58984375
 20
202.6396484375
 30
0.0
 10
427.9599609375
 20
195.51953125
 30
0.0
 10
427.900390625
 20
182.419921875
 30
0.0
 10
428.810546875
 20
169.349609375
 30
0.0
 10
428.83984375
 20
156.25
 30
0.0
 10
426.6201171875
 20
173.7900390625
 30
0.0
 10
425.0
 20
191.4404296875
 30
0.0
 10
422.759765625
 20
208.990234375
 30
0.0
 10
422.029296875
 20
212.8203125
 30
0.0
 10
419.7001953125
 20
216.009765625
 30
0.0
 10
418.0498046875
 20
219.4599609375
 30
0.0
  0
HATCH
  5
57
330
1F
100
AcDbEntity
  8
Layer 1
 62
     7
100
AcDbHatch
 10
0.0
 20
0.0
 30
0.0
210
0.0
220
0.0
230
1.0
  2
SOLID
 70
     1
 71
     0
 91
        1
 92
        1
 93
        1
 72
     4
 94
        3
 73
     0
 74
     1
 95
       26
 96
       22
 40
0.0
 40
0.0
 40
0.0
 40
0.0
 40
1.0
 40
1.0
 40
1.0
 40
2.0
 40
2.0
 40
2.0
 40
3.0
 40
3.0
 40
3.0
 40
4.0
 40
4.0
 40
4.0
 40
5.0
 40
5.0
 40
5.0
 40
6.0
 40
6.0
 40
6.0
 40
7.0
 40
7.0
 40
7.0
 40
7.0
 10
418.0498046875
 20
219.4599609375
 10
417.3701171875
 20
221.83984375
 10
418.810546875
 20
223.8203125
 10
420.189453125
 20
225.580078125
 10
421.529296875
 20
225.4501953125
 10
422.8701171875
 20
225.33984375
 10
424.220703125
 20
225.240234375
 10
423.349609375
 20
222.4599609375
 10
423.140625
 20
219.3203125
 10
424.810546875
 20
216.7802734375
 10
428.8203125
 20
210.419921875
 10
427.58984375
 20
202.6396484375
 10
427.9599609375
 20
195.51953125
 10
427.900390625
 20
182.419921875
 10
428.810546875
 20
169.349609375
 10
428.83984375
 20
156.25
 10
426.6201171875
 20
173.7900390625
 10
425.0
 20
191.4404296875
 10
422.759765625
 20
208.990234375
 10
422.029296875
 20
212.8203125
 10
419.7001953125
 20
216.009765625
 10
418.0498046875
 20
219.4599609375
 97
        0
 75
     2
 76
     1
 98
        0
  0
SPLINE
  5
58
330
1F
100
AcDbEntity
  8
Layer 1
370
     0
100
AcDbSpline
210
0.0
220
0.0
230
1.0
 70
    11
 71
     3
 72
    23
 73
    19
 74
     0
 42
0.0000000001
 43
0.0000000001
 40
0.0
 40
0.0
 40
0.0
 40
0.0
 40
1.0
 40
1.0
 40
1.0
 40
2.0
 40
2.0
 40
2.0
 40
3.0
 40
3.0
 40
3.0
 40
4.0
 40
4.0
 40
4.0
 40
5.0
 40
5.0
 40
5.0
 40
6.0
 40
6.0
 40
6.0
 40
6.0
 10
432.140625
 20
224.51953125
 30
0.0
 10
436.009765625
 20
224.4404296875
 30
0.0
 10
439.83984375
 20
224.9697265625
 30
0.0
 10
443.609375
 20
225.759765625
 30
0.0
 10
445.0703125
 20
223.7802734375
 30
0.0
 10
447.009765625
 20
221.16015625
 30
0.0
 10
445.470703125
 20
218.66015625
 30
0.0
 10
443.240234375
 20
214.8701171875
 30
0.0
 10
441.0703125
 20
210.900390625
 30
0.0
 10
440.759765625
 20
206.400390625
 30
0.0
 10
437.970703125
 20
181.1103515625
 30
0.0
 10
434.900390625
 20
155.83984375
 30
0.0
 10
432.2900390625
 20
130.5302734375
 30
0.0
 10
431.73046875
 20
135.849609375
 30
0.0
 10
432.279296875
 20
141.1904296875
 30
0.0
 10
432.220703125
 20
146.509765625
 30
0.0
 10
432.140625
 20
172.51953125
 30
0.0
 10
432.259765625
 20
198.51953125
 30
0.0
 10
432.140625
 20
224.51953125
 30
0.0
  0
HATCH
  5
59
330
1F
100
AcDbEntity
  8
Layer 1
 62
     7
100
AcDbHatch
 10
0.0
 20
0.0
 30
0.0
210
0.0
220
0.0
230
1.0
  2
SOLID
 70
     1
 71
     0
 91
        1
 92
        1
 93
        1
 72
     4
 94
        3
 73
     0
 74
     1
 95
       23
 96
       19
 40
0.0
 40
0.0
 40
0.0
 40
0.0
 40
1.0
 40
1.0
 40
1.0
 40
2.0
 40
2.0
 40
2.0
 40
3.0
 40
3.0
 40
3.0
 40
4.0
 40
4.0
 40
4.0
 40
5.0
 40
5.0
 40
5.0
 40
6.0
 40
6.0
 40
6.0
 40
6.0
 10
432.140625
 20
224.51953125
 10
436.009765625
 20
224.4404296875
 10
439.83984375
 20
224.9697265625
 10
443.609375
 20
225.759765625
 10
445.0703125
 20
223.7802734375
 10
447.009765625
 20
221.16015625
 10
445.470703125
 20
218.66015625
 10
443.240234375
 20
214.8701171875
 10
441.0703125
 20
210.900390625
 10
440.759765625
 20
206.400390625
 10
437.970703125
 20
181.1103515625
 10
434.900390625
 20
155.83984375
 10
432.2900390625
 20
130.5302734375
 10
431.73046875
 20
135.849609375
 10
432.279296875
 20
141.1904296875
 10
432.220703125
 20
146.509765625
 10
432.140625
 20
172.51953125
 10
432.259765625
 20
198.51953125
 10
432.140625
 20
224.51953125
 97
        0
 75
     2
 76
     1
 98
        0
  0
ENDSEC
  0
SECTION
  2
OBJECTS
  0
DICTIONARY
  5
C
330
0
100
AcDbDictionary
281
     1
  3
ACAD_GROUP
350
D
  3
ACAD_LAYOUT
350
1A
  3
ACAD_MLINESTYLE
350
17
  3
ACAD_PLOTSETTINGS
350
19
  3
ACAD_PLOTSTYLENAME
350
E
  3
ACAD_TABLESTYLE
350
5A
  3
ACAD_VISUALSTYLE
350
2A
  0
DICTIONARY
  5
D
102
{ACAD_REACTORS
330
C
102
}
330
C
100
AcDbDictionary
281
     1
  0
DICTIONARY
  5
1A
102
{ACAD_REACTORS
330
C
102
}
330
C
100
AcDbDictionary
281
     1
  3
Layout1
350
1E
  3
Layout2
350
26
  3
Model
350
22
  0
DICTIONARY
  5
17
102
{ACAD_REACTORS
330
C
102
}
330
C
100
AcDbDictionary
281
     1
  3
Standard
350
18
  0
DICTIONARY
  5
19
102
{ACAD_REACTORS
330
C
102
}
330
C
100
AcDbDictionary
281
     1
  0
ACDBDICTIONARYWDFLT
  5
E
102
{ACAD_REACTORS
330
C
102
}
330
C
100
AcDbDictionary
281
     1
  3
Normal
350
F
100
AcDbDictionaryWithDefault
340
F
  0
DICTIONARY
  5
5A
102
{ACAD_REACTORS
330
C
102
}
330
C
100
AcDbDictionary
281
     1
  0
DICTIONARY
  5
2A
102
{ACAD_REACTORS
330
C
102
}
330
C
100
AcDbDictionary
281
     1
  3
2dWireframe
350
2F
  3
3D Hidden
350
31
  3
3dWireframe
350
30
  3
Basic
350
32
  3
Brighten
350
36
  3
ColorChange
350
3A
  3
Conceptual
350
34
  3
Dim
350
35
  3
Facepattern
350
39
  3
Flat
350
2B
  3
FlatWithEdges
350
2C
  3
Gouraud
350
2D
  3
GouraudWithEdges
350
2E
  3
Linepattern
350
38
  3
Realistic
350
33
  3
Thicken
350
37
  0
LAYOUT
  5
1E
102
{ACAD_REACTORS
330
1A
102
}
330
1A
100
AcDbPlotSettings
  1

  2
none_device
  4

  6

 40
0.0
 41
0.0
 42
0.0
 43
0.0
 44
0.0
 45
0.0
 46
0.0
 47
0.0
 48
0.0
 49
0.0
140
0.0
141
0.0
142
1.0
143
1.0
 70
   688
 72
     0
 73
     0
 74
     5
  7

 75
    16
 76
     0
 77
     2
 78
   300
147
1.0
148
0.0
149
0.0
100
AcDbLayout
  1
Layout1
 70
     1
 71
     1
 10
0.0
 20
0.0
 11
12.0
 21
9.0
 12
0.0
 22
0.0
 32
0.0
 14
1.000000000000000E+20
 24
1.000000000000000E+20
 34
1.000000000000000E+20
 15
-1.000000000000000E+20
 25
-1.000000000000000E+20
 35
-1.000000000000000E+20
146
0.0
 13
0.0
 23
0.0
 33
0.0
 16
1.0
 26
0.0
 36
0.0
 17
0.0
 27
1.0
 37
0.0
 76
     0
330
1B
  0
LAYOUT
  5
26
102
{ACAD_REACTORS
330
1A
102
}
330
1A
100
AcDbPlotSettings
  1

  2
none_device
  4

  6

 40
0.0
 41
0.0
 42
0.0
 43
0.0
 44
0.0
 45
0.0
 46
0.0
 47
0.0
 48
0.0
 49
0.0
140
0.0
141
0.0
142
1.0
143
1.0
 70
   688
 72
     0
 73
     0
 74
     5
  7

 75
    16
 76
     0
 77
     2
 78
   300
147
1.0
148
0.0
149
0.0
100
AcDbLayout
  1
Layout2
 70
     1
 71
     2
 10
0.0
 20
0.0
 11
0.0
 21
0.0
 12
0.0
 22
0.0
 32
0.0
 14
0.0
 24
0.0
 34
0.0
 15
0.0
 25
0.0
 35
0.0
146
0.0
 13
0.0
 23
0.0
 33
0.0
 16
1.0
 26
0.0
 36
0.0
 17
0.0
 27
1.0
 37
0.0
 76
     0
330
23
  0
LAYOUT
  5
22
102
{ACAD_REACTORS
330
1A
102
}
330
1A
100
AcDbPlotSettings
  1

  2
none_device
  4

  6

 40
0.0
 41
0.0
 42
0.0
 43
0.0
 44
0.0
 45
0.0
 46
0.0
 47
0.0
 48
0.0
 49
0.0
140
0.0
141
0.0
142
1.0
143
1.0
 70
  1712
 72
     0
 73
     0
 74
     0
  7

 75
     0
 76
     0
 77
     2
 78
   300
147
1.0
148
0.0
149
0.0
100
AcDbLayout
  1
Model
 70
     1
 71
     0
 10
0.0
 20
0.0
 11
12.0
 21
9.0
 12
0.0
 22
0.0
 32
0.0
 14
1.000000000000000E+20
 24
1.000000000000000E+20
 34
1.000000000000000E+20
 15
-1.000000000000000E+20
 25
-1.000000000000000E+20
 35
-1.000000000000000E+20
146
0.0
 13
0.0
 23
0.0
 33
0.0
 16
1.0
 26
0.0
 36
0.0
 17
0.0
 27
1.0
 37
0.0
 76
     0
330
1F
331
29
  0
MLINESTYLE
  5
18
102
{ACAD_REACTORS
330
17
102
}
330
17
100
AcDbMlineStyle
  2
Standard
 70
     0
  3

 62
   256
 51
90.0
 52
90.0
 71
     2
 49
0.5
 62
   256
  6
BYLAYER
 49
-0.5
 62
   256
  6
BYLAYER
  0
ACDBPLACEHOLDER
  5
F
102
{ACAD_REACTORS
330
E
102
}
330
E
  0
VISUALSTYLE
  5
2F
102
{ACAD_REACTORS
330
2A
102
}
330
2A
100
AcDbVisualStyle
  2
2dWireframe
 70
     4
 71
     0
 72
     2
 73
     0
 90
        0
 40
-0.6
 41
-30.0
 62
     5
 63
     7
421
 16777215
 74
     1
 91
        4
 64
     7
 65
   257
 75
     1
175
     1
 42
1.0
 92
        0
 66
   257
 43
1.0
 76
     1
 77
     6
 78
     2
 67
     7
 79
     5
170
     0
171
     0
290
     0
174
     0
 93
        1
 44
0.0
173
     0
291
     0
 45
0.0
1001
ACAD
1000
AcDbSavedByObjectVersion
1070
     0
  0
VISUALSTYLE
  5
31
102
{ACAD_REACTORS
330
2A
102
}
330
2A
100
AcDbVisualStyle
  2
3D Hidden
 70
     6
 71
     1
 72
     2
 73
     2
 90
        0
 40
-0.6
 41
-30.0
 62
     5
 63
     7
421
 16777215
 74
     2
 91
        2
 64
     7
 65
   257
 75
     2
175
     1
 42
40.0
 92
        0
 66
   257
 43
1.0
 76
     1
 77
     6
 78
     2
 67
     7
 79
     3
170
     0
171
     0
290
     0
174
     0
 93
        1
 44
0.0
173
     0
291
     0
 45
0.0
1001
ACAD
1000
AcDbSavedByObjectVersion
1070
     0
  0
VISUALSTYLE
  5
30
102
{ACAD_REACTORS
330
2A
102
}
330
2A
100
AcDbVisualStyle
  2
3dWireframe
 70
     5
 71
     0
 72
     2
 73
     0
 90
        0
 40
-0.6
 41
-30.0
 62
     5
 63
     7
421
 16777215
 74
     1
 91
        4
 64
     7
 65
   257
 75
     1
175
     1
 42
1.0
 92
        0
 66
   257
 43
1.0
 76
     1
 77
     6
 78
     2
 67
     7
 79
     5
170
     0
171
     0
290
     0
174
     0
 93
        1
 44
0.0
173
     0
291
     0
 45
0.0
1001
ACAD
1000
AcDbSavedByObjectVersion
1070
     0
  0
VISUALSTYLE
  5
32
102
{ACAD_REACTORS
330
2A
102
}
330
2A
100
AcDbVisualStyle
  2
Basic
 70
     7
 71
     1
 72
     0
 73
     1
 90
        0
 40
-0.6
 41
-30.0
 62
     5
 63
     7
421
 16777215
 74
     0
 91
        4
 64
     7
 65
   257
 75
     1
175
     1
 42
1.0
 92
        8
 66
     7
 43
1.0
 76
     1
 77
     6
 78
     2
 67
     7
 79
     5
170
     0
171
     0
290
     0
174
     0
 93
        1
 44
0.0
173
     0
291
     1
 45
0.0
1001
ACAD
1000
AcDbSavedByObjectVersion
1070
     0
  0
VISUALSTYLE
  5
36
102
{ACAD_REACTORS
330
2A
102
}
330
2A
100
AcDbVisualStyle
  2
Brighten
 70
    12
 71
     2
 72
     2
 73
     0
 90
        0
 40
-0.6
 41
-30.0
 62
     5
 63
     7
421
 16777215
 74
     1
 91
        4
 64
     7
 65
   257
 75
     1
175
     1
 42
1.0
 92
        8
 66
     7
 43
1.0
 76
     1
 77
     6
 78
     2
 67
     7
 79
     5
170
     0
171
     0
290
     0
174
     0
 93
        1
 44
50.0
173
     0
291
     1
 45
0.0
1001
ACAD
1000
AcDbSavedByObjectVersion
1070
     0
  0
VISUALSTYLE
  5
3A
102
{ACAD_REACTORS
330
2A
102
}
330
2A
100
AcDbVisualStyle
  2
ColorChange
 70
    16
 71
     2
 72
     2
 73
     3
 90
        0
 40
-0.6
 41
-30.0
 62
     5
 63
     8
421
  8421504
 74
     1
 91
        4
 64
     7
 65
   257
 75
     1
175
     1
 42
1.0
 92
        8
 66
     8
424
  8421504
 43
1.0
 76
     1
 77
     6
 78
     2
 67
     7
 79
     5
170
     0
171
     0
290
     0
174
     0
 93
        1
 44
0.0
173
     0
291
     1
 45
0.0
1001
ACAD
1000
AcDbSavedByObjectVersion
1070
     0
  0
VISUALSTYLE
  5
34
102
{ACAD_REACTORS
330
2A
102
}
330
2A
100
AcDbVisualStyle
  2
Conceptual
 70
     9
 71
     3
 72
     2
 73
     0
 90
        0
 40
-0.6
 41
-30.0
 62
     5
 63
     7
421
 16777215
 74
     2
 91
        2
 64
     7
 65
   257
 75
     1
175
     1
 42
40.0
 92
        8
 66
     7
 43
1.0
 76
     1
 77
     6
 78
     2
 67
     7
 79
     3
170
     0
171
     0
290
     0
174
     0
 93
        1
 44
0.0
173
     0
291
     0
 45
0.0
1001
ACAD
1000
AcDbSavedByObjectVersion
1070
     0
  0
VISUALSTYLE
  5
35
102
{ACAD_REACTORS
330
2A
102
}
330
2A
100
AcDbVisualStyle
  2
Dim
 70
    11
 71
     2
 72
     2
 73
     0
 90
        0
 40
-0.6
 41
-30.0
 62
     5
 63
     7
421
 16777215
 74
     1
 91
        4
 64
     7
 65
   257
 75
     1
175
     1
 42
1.0
 92
        8
 66
     7
 43
1.0
 76
     1
 77
     6
 78
     2
 67
     7
 79
     5
170
     0
171
     0
290
     0
174
     0
 93
        1
 44
-50.0
173
     0
291
     1
 45
0.0
1001
ACAD
1000
AcDbSavedByObjectVersion
1070
     0
  0
VISUALSTYLE
  5
39
102
{ACAD_REACTORS
330
2A
102
}
330
2A
100
AcDbVisualStyle
  2
Facepattern
 70
    15
 71
     2
 72
     2
 73
     0
 90
        0
 40
-0.6
 41
-30.0
 62
     5
 63
     7
421
 16777215
 74
     1
 91
        4
 64
     7
 65
   257
 75
     1
175
     1
 42
1.0
 92
        8
 66
     7
 43
1.0
 76
     1
 77
     6
 78
     2
 67
     7
 79
     5
170
     0
171
     0
290
     0
174
     0
 93
        1
 44
0.0
173
     0
291
     1
 45
0.0
1001
ACAD
1000
AcDbSavedByObjectVersion
1070
     0
  0
VISUALSTYLE
  5
2B
102
{ACAD_REACTORS
330
2A
102
}
330
2A
100
AcDbVisualStyle
  2
Flat
 70
     0
 71
     2
 72
     1
 73
     1
 90
        2
 40
-0.6
 41
30.0
 62
     5
 63
     7
421
 16777215
 74
     0
 91
        4
 64
     7
 65
   257
 75
     1
175
     1
 42
1.0
 92
        8
 66
     7
 43
1.0
 76
     1
 77
     6
 78
     2
 67
     7
 79
     5
170
     0
171
     0
290
     0
174
     0
 93
       13
 44
0.0
173
     0
291
     1
 45
0.0
1001
ACAD
1000
AcDbSavedByObjectVersion
1070
     0
  0
VISUALSTYLE
  5
2C
102
{ACAD_REACTORS
330
2A
102
}
330
2A
100
AcDbVisualStyle
  2
FlatWithEdges
 70
     1
 71
     2
 72
     1
 73
     1
 90
        2
 40
-0.6
 41
30.0
 62
     5
 63
     7
421
 16777215
 74
     1
 91
        4
 64
     7
 65
   257
 75
     1
175
     1
 42
1.0
 92
        0
 66
   257
 43
1.0
 76
     1
 77
     6
 78
     2
 67
     7
 79
     5
170
     0
171
     0
290
     0
174
     0
 93
       13
 44
0.0
173
     0
291
     1
 45
0.0
1001
ACAD
1000
AcDbSavedByObjectVersion
1070
     0
  0
VISUALSTYLE
  5
2D
102
{ACAD_REACTORS
330
2A
102
}
330
2A
100
AcDbVisualStyle
  2
Gouraud
 70
     2
 71
     2
 72
     2
 73
     1
 90
        2
 40
-0.6
 41
30.0
 62
     5
 63
     7
421
 16777215
 74
     0
 91
        4
 64
     7
 65
   257
 75
     1
175
     1
 42
1.0
 92
        0
 66
     7
 43
1.0
 76
     1
 77
     6
 78
     2
 67
     7
 79
     5
170
     0
171
     0
290
     0
174
     0
 93
       13
 44
0.0
173
     0
291
     1
 45
0.0
1001
ACAD
1000
AcDbSavedByObjectVersion
1070
     0
  0
VISUALSTYLE
  5
2E
102
{ACAD_REACTORS
330
2A
102
}
330
2A
100
AcDbVisualStyle
  2
GouraudWithEdges
 70
     3
 71
     2
 72
     2
 73
     1
 90
        2
 40
-0.6
 41
30.0
 62
     5
 63
     7
421
 16777215
 74
     1
 91
        4
 64
     7
 65
   257
 75
     1
175
     1
 42
1.0
 92
        0
 66
   257
 43
1.0
 76
     1
 77
     6
 78
     2
 67
     7
 79
     5
170
     0
171
     0
290
     0
174
     0
 93
       13
 44
0.0
173
     0
291
     1
 45
0.0
1001
ACAD
1000
AcDbSavedByObjectVersion
1070
     0
  0
VISUALSTYLE
  5
38
102
{ACAD_REACTORS
330
2A
102
}
330
2A
100
AcDbVisualStyle
  2
Linepattern
 70
    14
 71
     2
 72
     2
 73
     0
 90
        0
 40
-0.6
 41
-30.0
 62
     5
 63
     7
421
 16777215
 74
     1
 91
        4
 64
     7
 65
   257
 75
     7
175
     7
 42
1.0
 92
        8
 66
     7
 43
1.0
 76
     1
 77
     6
 78
     2
 67
     7
 79
     5
170
     0
171
     0
290
     0
174
     0
 93
        1
 44
0.0
173
     0
291
     1
 45
0.0
1001
ACAD
1000
AcDbSavedByObjectVersion
1070
     0
  0
VISUALSTYLE
  5
33
102
{ACAD_REACTORS
330
2A
102
}
330
2A
100
AcDbVisualStyle
  2
Realistic
 70
     8
 71
     2
 72
     2
 73
     0
 90
        0
 40
-0.6
 41
-30.0
 62
     5
 63
     7
421
 16777215
 74
     1
 91
        0
 64
     7
 65
   257
 75
     1
175
     1
 42
1.0
 92
        8
 66
     8
424
  7895160
 43
1.0
 76
     1
 77
     6
 78
     2
 67
     7
 79
     5
170
     0
171
     0
290
     0
174
     0
 93
       13
 44
0.0
173
     0
291
     0
 45
0.0
1001
ACAD
1000
AcDbSavedByObjectVersion
1070
     0
  0
VISUALSTYLE
  5
37
102
{ACAD_REACTORS
330
2A
102
}
330
2A
100
AcDbVisualStyle
  2
Thicken
 70
    13
 71
     2
 72
     2
 73
     0
 90
        0
 40
-0.6
 41
-30.0
 62
     5
 63
     7
421
 16777215
 74
     1
 91
        4
 64
     7
 65
   257
 75
     1
175
     1
 42
1.0
 92
       12
 66
     7
 43
1.0
 76
     1
 77
     6
 78
     2
 67
     7
 79
     5
170
     0
171
     0
290
     0
174
     0
 93
        1
 44
0.0
173
     0
291
     1
 45
0.0
1001
ACAD
1000
AcDbSavedByObjectVersion
1070
     0
  0
ENDSEC
  0
EOF
