solid OpenSCAD_Model
  facet normal -1 0 0
    outer loop
      vertex 0 0 2
      vertex 0 60 2
      vertex 0 0 0
    endloop
  endfacet
  facet normal -1 0 0
    outer loop
      vertex 0 0 0
      vertex 0 60 2
      vertex 0 60 0
    endloop
  endfacet
  facet normal 0 0 1
    outer loop
      vertex 0 0 2
      vertex 120 0 2
      vertex 120 60 2
    endloop
  endfacet
  facet normal 0 0 1
    outer loop
      vertex 0 60 2
      vertex 0 0 2
      vertex 120 60 2
    endloop
  endfacet
  facet normal 0 -1 0
    outer loop
      vertex 0 0 0
      vertex 120 0 0
      vertex 120 0 2
    endloop
  endfacet
  facet normal 0 -1 0
    outer loop
      vertex 0 0 2
      vertex 0 0 0
      vertex 120 0 2
    endloop
  endfacet
  facet normal 0 0 -1
    outer loop
      vertex 0 60 0
      vertex 120 60 0
      vertex 0 0 0
    endloop
  endfacet
  facet normal 0 0 -1
    outer loop
      vertex 0 0 0
      vertex 120 60 0
      vertex 120 0 0
    endloop
  endfacet
  facet normal 0 1 0
    outer loop
      vertex 0 60 2
      vertex 120 60 2
      vertex 0 60 0
    endloop
  endfacet
  facet normal 0 1 0
    outer loop
      vertex 0 60 0
      vertex 120 60 2
      vertex 120 60 0
    endloop
  endfacet
  facet normal 1 0 0
    outer loop
      vertex 120 0 0
      vertex 120 60 0
      vertex 120 60 2
    endloop
  endfacet
  facet normal 1 0 0
    outer loop
      vertex 120 0 2
      vertex 120 0 0
      vertex 120 60 2
    endloop
  endfacet
endsolid OpenSCAD_Model
