solid OpenSCAD_Model
  facet normal -1 0 0
    outer loop
      vertex -1.5 0 0
      vertex -1.5 0 3
      vertex -1.5 1.3 0
    endloop
  endfacet
  facet normal -1 0 0
    outer loop
      vertex -1.5 1.3 0
      vertex -1.5 0 3
      vertex -1.5 1.3 3
    endloop
  endfacet
  facet normal 0 -1 0
    outer loop
      vertex -1.5 0 3
      vertex -1.5 0 0
      vertex 6.5 0 0
    endloop
  endfacet
  facet normal 0 -1 0
    outer loop
      vertex 0 0 3
      vertex -1.5 0 3
      vertex 6.5 0 0
    endloop
  endfacet
  facet normal 0 -1 0
    outer loop
      vertex 5 0 3
      vertex 0 0 3
      vertex 6.5 0 0
    endloop
  endfacet
  facet normal 0 -1 0
    outer loop
      vertex 6.5 0 3
      vertex 5 0 3
      vertex 6.5 0 0
    endloop
  endfacet
  facet normal 0 -1 0
    outer loop
      vertex 5 0 4
      vertex 0 0 3
      vertex 5 0 3
    endloop
  endfacet
  facet normal 0 -1 0
    outer loop
      vertex 0 0 4
      vertex 0 0 3
      vertex 5 0 4
    endloop
  endfacet
  facet normal 0 0 -1
    outer loop
      vertex -1.5 0 0
      vertex -1.5 1.3 0
      vertex 6.5 0 0
    endloop
  endfacet
  facet normal 0 0 -1
    outer loop
      vertex 6.5 0 0
      vertex -1.5 1.3 0
      vertex 0 1.3 0
    endloop
  endfacet
  facet normal 0 0 -1
    outer loop
      vertex 6.5 0 0
      vertex 0 1.3 0
      vertex 0 3.8 0
    endloop
  endfacet
  facet normal 0 0 -1
    outer loop
      vertex 5 1.3 0
      vertex 0 3.8 0
      vertex 5 3.8 0
    endloop
  endfacet
  facet normal 0 0 -1
    outer loop
      vertex 6.5 0 0
      vertex 0 3.8 0
      vertex 5 1.3 0
    endloop
  endfacet
  facet normal 0 0 -1
    outer loop
      vertex 6.5 1.3 0
      vertex 6.5 0 0
      vertex 5 1.3 0
    endloop
  endfacet
  facet normal 0 1 0
    outer loop
      vertex -1.5 1.3 0
      vertex -1.5 1.3 3
      vertex 0 1.3 0
    endloop
  endfacet
  facet normal 0 1 0
    outer loop
      vertex 0 1.3 0
      vertex -1.5 1.3 3
      vertex 0 1.3 3
    endloop
  endfacet
  facet normal 0 0 1
    outer loop
      vertex -1.5 1.3 3
      vertex -1.5 0 3
      vertex 0 0 3
    endloop
  endfacet
  facet normal 0 0 1
    outer loop
      vertex 0 1.3 3
      vertex -1.5 1.3 3
      vertex 0 0 3
    endloop
  endfacet
  facet normal -1 0 0
    outer loop
      vertex 0 0 3
      vertex 0 0 4
      vertex 0 1.3 3
    endloop
  endfacet
  facet normal -1 0 0
    outer loop
      vertex 0 1.3 3
      vertex 0 0 4
      vertex 0 3.8 4
    endloop
  endfacet
  facet normal -1 0 0
    outer loop
      vertex 0 1.3 3
      vertex 0 3.8 4
      vertex 0 3.8 0
    endloop
  endfacet
  facet normal -1 0 0
    outer loop
      vertex 0 1.3 3
      vertex 0 3.8 0
      vertex 0 1.3 0
    endloop
  endfacet
  facet normal 0 0 1
    outer loop
      vertex 0 3.8 4
      vertex 0 0 4
      vertex 5 0 4
    endloop
  endfacet
  facet normal 0 0 1
    outer loop
      vertex 5 3.8 4
      vertex 0 3.8 4
      vertex 5 0 4
    endloop
  endfacet
  facet normal 1 0 0
    outer loop
      vertex 5 0 4
      vertex 5 0 3
      vertex 5 1.3 3
    endloop
  endfacet
  facet normal 1 0 0
    outer loop
      vertex 5 3.8 4
      vertex 5 0 4
      vertex 5 1.3 3
    endloop
  endfacet
  facet normal 1 0 0
    outer loop
      vertex 5 1.3 0
      vertex 5 3.8 0
      vertex 5 1.3 3
    endloop
  endfacet
  facet normal 1 0 0
    outer loop
      vertex 5 3.8 0
      vertex 5 3.8 4
      vertex 5 1.3 3
    endloop
  endfacet
  facet normal 0 0 1
    outer loop
      vertex 5 1.3 3
      vertex 5 0 3
      vertex 6.5 0 3
    endloop
  endfacet
  facet normal 0 0 1
    outer loop
      vertex 6.5 1.3 3
      vertex 5 1.3 3
      vertex 6.5 0 3
    endloop
  endfacet
  facet normal 1 0 0
    outer loop
      vertex 6.5 0 3
      vertex 6.5 0 0
      vertex 6.5 1.3 0
    endloop
  endfacet
  facet normal 1 0 0
    outer loop
      vertex 6.5 1.3 3
      vertex 6.5 0 3
      vertex 6.5 1.3 0
    endloop
  endfacet
  facet normal 0 1 0
    outer loop
      vertex 5 1.3 0
      vertex 5 1.3 3
      vertex 6.5 1.3 0
    endloop
  endfacet
  facet normal 0 1 0
    outer loop
      vertex 6.5 1.3 0
      vertex 5 1.3 3
      vertex 6.5 1.3 3
    endloop
  endfacet
  facet normal 0 1 0
    outer loop
      vertex 0 3.8 0
      vertex 0 3.8 4
      vertex 5 3.8 0
    endloop
  endfacet
  facet normal 0 1 0
    outer loop
      vertex 5 3.8 0
      vertex 0 3.8 4
      vertex 5 3.8 4
    endloop
  endfacet
endsolid OpenSCAD_Model
