solid OpenSCAD_Model
  facet normal -1 0 0
    outer loop
      vertex -1.5 0 0
      vertex -1.5 0 2.4
      vertex -1.5 1.3 0
    endloop
  endfacet
  facet normal -1 0 0
    outer loop
      vertex -1.5 1.3 0
      vertex -1.5 0 2.4
      vertex -1.5 1.3 2.4
    endloop
  endfacet
  facet normal 0 -1 0
    outer loop
      vertex -1.5 0 2.4
      vertex -1.5 0 0
      vertex 5.5 0 0
    endloop
  endfacet
  facet normal 0 -1 0
    outer loop
      vertex 0 0 2.4
      vertex -1.5 0 2.4
      vertex 5.5 0 0
    endloop
  endfacet
  facet normal 0 -1 0
    outer loop
      vertex 4 0 2.4
      vertex 0 0 2.4
      vertex 5.5 0 0
    endloop
  endfacet
  facet normal 0 -1 0
    outer loop
      vertex 5.5 0 2.4
      vertex 4 0 2.4
      vertex 5.5 0 0
    endloop
  endfacet
  facet normal 0 -1 0
    outer loop
      vertex 4 0 3
      vertex 0 0 2.4
      vertex 4 0 2.4
    endloop
  endfacet
  facet normal 0 -1 0
    outer loop
      vertex 0 0 3
      vertex 0 0 2.4
      vertex 4 0 3
    endloop
  endfacet
  facet normal 0 0 -1
    outer loop
      vertex -1.5 0 0
      vertex -1.5 1.3 0
      vertex 5.5 0 0
    endloop
  endfacet
  facet normal 0 0 -1
    outer loop
      vertex 5.5 0 0
      vertex -1.5 1.3 0
      vertex 0 1.3 0
    endloop
  endfacet
  facet normal 0 0 -1
    outer loop
      vertex 5.5 0 0
      vertex 0 1.3 0
      vertex 0 3.6 0
    endloop
  endfacet
  facet normal 0 0 -1
    outer loop
      vertex 4 1.3 0
      vertex 0 3.6 0
      vertex 4 3.6 0
    endloop
  endfacet
  facet normal 0 0 -1
    outer loop
      vertex 5.5 0 0
      vertex 0 3.6 0
      vertex 4 1.3 0
    endloop
  endfacet
  facet normal 0 0 -1
    outer loop
      vertex 5.5 1.3 0
      vertex 5.5 0 0
      vertex 4 1.3 0
    endloop
  endfacet
  facet normal 0 1 0
    outer loop
      vertex -1.5 1.3 0
      vertex -1.5 1.3 2.4
      vertex 0 1.3 0
    endloop
  endfacet
  facet normal 0 1 0
    outer loop
      vertex 0 1.3 0
      vertex -1.5 1.3 2.4
      vertex 0 1.3 2.4
    endloop
  endfacet
  facet normal 0 0 1
    outer loop
      vertex -1.5 1.3 2.4
      vertex -1.5 0 2.4
      vertex 0 0 2.4
    endloop
  endfacet
  facet normal 0 0 1
    outer loop
      vertex 0 1.3 2.4
      vertex -1.5 1.3 2.4
      vertex 0 0 2.4
    endloop
  endfacet
  facet normal -1 0 0
    outer loop
      vertex 0 0 2.4
      vertex 0 0 3
      vertex 0 1.3 2.4
    endloop
  endfacet
  facet normal -1 0 0
    outer loop
      vertex 0 1.3 2.4
      vertex 0 0 3
      vertex 0 3.6 3
    endloop
  endfacet
  facet normal -1 0 0
    outer loop
      vertex 0 1.3 2.4
      vertex 0 3.6 3
      vertex 0 3.6 0
    endloop
  endfacet
  facet normal -1 0 0
    outer loop
      vertex 0 1.3 2.4
      vertex 0 3.6 0
      vertex 0 1.3 0
    endloop
  endfacet
  facet normal 0 0 1
    outer loop
      vertex 0 3.6 3
      vertex 0 0 3
      vertex 4 0 3
    endloop
  endfacet
  facet normal 0 0 1
    outer loop
      vertex 4 3.6 3
      vertex 0 3.6 3
      vertex 4 0 3
    endloop
  endfacet
  facet normal 1 0 0
    outer loop
      vertex 4 0 3
      vertex 4 0 2.4
      vertex 4 1.3 2.4
    endloop
  endfacet
  facet normal 1 0 0
    outer loop
      vertex 4 3.6 3
      vertex 4 0 3
      vertex 4 1.3 2.4
    endloop
  endfacet
  facet normal 1 0 0
    outer loop
      vertex 4 1.3 0
      vertex 4 3.6 0
      vertex 4 1.3 2.4
    endloop
  endfacet
  facet normal 1 0 0
    outer loop
      vertex 4 3.6 0
      vertex 4 3.6 3
      vertex 4 1.3 2.4
    endloop
  endfacet
  facet normal 0 0 1
    outer loop
      vertex 4 1.3 2.4
      vertex 4 0 2.4
      vertex 5.5 0 2.4
    endloop
  endfacet
  facet normal 0 0 1
    outer loop
      vertex 5.5 1.3 2.4
      vertex 4 1.3 2.4
      vertex 5.5 0 2.4
    endloop
  endfacet
  facet normal 1 0 0
    outer loop
      vertex 5.5 0 2.4
      vertex 5.5 0 0
      vertex 5.5 1.3 0
    endloop
  endfacet
  facet normal 1 0 0
    outer loop
      vertex 5.5 1.3 2.4
      vertex 5.5 0 2.4
      vertex 5.5 1.3 0
    endloop
  endfacet
  facet normal 0 1 0
    outer loop
      vertex 4 1.3 0
      vertex 4 1.3 2.4
      vertex 5.5 1.3 0
    endloop
  endfacet
  facet normal 0 1 0
    outer loop
      vertex 5.5 1.3 0
      vertex 4 1.3 2.4
      vertex 5.5 1.3 2.4
    endloop
  endfacet
  facet normal 0 1 0
    outer loop
      vertex 0 3.6 0
      vertex 0 3.6 3
      vertex 4 3.6 0
    endloop
  endfacet
  facet normal 0 1 0
    outer loop
      vertex 4 3.6 0
      vertex 0 3.6 3
      vertex 4 3.6 3
    endloop
  endfacet
endsolid OpenSCAD_Model
